<svg xmlns="http://www.w3.org/2000/svg" viewBox="0 0 366.36 139.27"><defs><style>.cls-1{font-size:79.85px;font-family:Burnts_reg, Burntsreg;}.cls-1,.cls-3{fill:#fcef44;}.cls-2{fill:#fff;}.cls-4{fill:none;stroke:#fcef44;stroke-linecap:round;stroke-linejoin:round;stroke-width:0;}</style></defs><g id="Layer_2" data-name="Layer 2"><g id="Layer_1-2" data-name="Layer 1"><text class="cls-1" transform="translate(20.12 65.88)">Degeneroach</text><path class="cls-2" d="M165.62,91.23c1.44-.9,4.84-1.76,5-.79-.12-1-.12-1,2.1-2.07.07.64,2.15.09,3.48-.21-1.19-.25-2.73,0-5.8.35-2.52,1.83-8.65,1-10.93,3C161.37,91.48,163.39,92.06,165.62,91.23Z"/><path class="cls-2" d="M178.8,93.07l.34-.46-4.67,1.47C175.38,93.6,178.56,92.65,178.8,93.07Z"/><path class="cls-3" d="M194.09,89.47c-.32.76,2.18.78,2.23,1.43-.3-1.37,3.77-.93,5.86-1.36l.7-1.18c-2.17-.57-7.28.64-11.67,1.21Z"/><path class="cls-2" d="M198.15,89.65l1.28-.91C198.3,89.1,195.65,89.63,198.15,89.65Z"/><path class="cls-2" d="M194.62,86.33c-3.45.44,2.14.14-1.28.91C194.47,86.87,195.8,86.61,194.62,86.33Z"/><polygon class="cls-3" points="209.32 86.47 202.08 87.94 205.16 88.01 209.32 86.47"/><path class="cls-3" d="M210,88.72c-.95.12-2.5-.08-1.19-.64,2.72.52,4.19-.9,6.71-.49l-2.28.67c.42.84,4.73-1.54,4.8.1,3-1.45-2.55-1.12,1.45-2.34a69.7,69.7,0,0,1-10,.88,18,18,0,0,0,2.7.18c-2.29.35-5.32,1.24-8,1.69C205.84,89.62,207.69,88.42,210,88.72Z"/><path class="cls-3" d="M221.67,87.57c2.49-.17,6.31-.53,6.86-1.81-2.7-.59-3.07.48-4.2,1.11-.77-.12-3.26,0-2.32-.69C222.4,86.4,220.5,87.23,221.67,87.57Z"/><path class="cls-3" d="M231.42,86.78c.57-.42,1.14-.84,1.71-1.24l-1.15.28-.2-.75a4.09,4.09,0,0,1-3.42,1.87C229.71,87.4,230.08,86.65,231.42,86.78Z"/><path class="cls-3" d="M231.54,81.4c1.75.38,2.71,0,4.64-.44-1.35.15-3,.28-4.4.46a10.05,10.05,0,0,0-2.94.68l.2-.21a30.49,30.49,0,0,0-4.22,1.76C227.51,82.62,232.53,83.25,231.54,81.4Z"/><path class="cls-3" d="M228.07,81.66l1.92-.83Z"/><polygon class="cls-3" points="239.08 85.94 235.25 85.86 236.21 86.12 239.08 85.94"/><path class="cls-3" d="M234.26,83c3.09-.07-1.74-.73,1.15-.92.78-.17-4.25.32-4.43.9C231.75,83.1,233.87,82.14,234.26,83Z"/><path class="cls-3" d="M241.57,85.84l3.08-1Z"/><path class="cls-3" d="M249.42,85.82l.59-.6c3.05.36,7.12-.62,9.37.54-.54-.69,1.21-1.53-1.47-1.63-.4.4-1.36.43-1.18.88-1.15-.1-.94-.62-1.71-.79-1.93.71-5,.36-6.54,1a4.08,4.08,0,0,1,1.53,0c-3.28,1.14-4-1.19-5.37.56C245.79,85.2,247.88,86.12,249.42,85.82Z"/><path class="cls-3" d="M248.93,81.91c-.9,0-1.81,0-2.71,0a3.25,3.25,0,0,1,2-.53c.78,0,1.5-.06,1.7-.42-.18-.46-2.89-.54-1.92-.9-.22,1.82-3.68.36-2.16,2.27-3.47.48-1.14-1-4.81-.66l-1,1C244.11,81.88,244.86,82.64,248.93,81.91Z"/><path class="cls-3" d="M259.35,81.76l1.33.54-.74-.82a15.29,15.29,0,0,1,4.09.29,24.44,24.44,0,0,1,3.41,1.06c2.1.77,3.88,1.5,5.69,1.24a17.83,17.83,0,0,1,6.62-.23,47,47,0,0,0,6.67.65c2.26-.68-2.14-.47-2.37-.93.68-1.41,2.17.8,3.25-.35.32-1-4.71-1.21-6.69-1.85-1.73.15-1.7.48-2.23,1.06-.44-.57-2.19-.73-2.63-1.3-3.6.84-5.51-.68-9,.22-1.12-.77,2.65-.17,1.48-.28l-1.94,0,.21.12a9.17,9.17,0,0,1-2.3.36,21.08,21.08,0,0,1-2.64,0,22,22,0,0,1-4.26-.56c1.33.22,2.28.83.72,1.14l-1.32-.86-3.32,1.47C255.88,81.81,258.9,83.45,259.35,81.76Z"/><path class="cls-3" d="M255.54,80.27c-4-.32.54,1.34-3.9,1.1l4.65-.28Z"/><path class="cls-2" d="M274.87,82.1l2,.61C275.78,81.44,272.65,83.17,274.87,82.1Z"/><polygon class="cls-2" points="282.21 82.07 281.14 83.23 283.02 82.59 282.21 82.07"/><path class="cls-3" d="M288.86,83.63c1.51-.55-.26-1.11-2-1C288.43,82.71,289.23,83.25,288.86,83.63Z"/><path class="cls-2" d="M299.73,86.34c-3.34-.18,2.94.45.48,1.37C300.67,87.24,302.4,86.67,299.73,86.34Z"/><path class="cls-3" d="M310.28,89.85c-1.21.12-1.68-.12-1.82-.42A4.61,4.61,0,0,1,310.28,89.85Z"/><path class="cls-3" d="M268.82,85a9.26,9.26,0,0,1-1.18,0Z"/><path class="cls-3" d="M269.58,85l-.76,0C269.1,85,269.36,85,269.58,85Z"/><path class="cls-3" d="M294.36,87.76h0l-.26-.12Z"/><path class="cls-3" d="M188.52,91.93a13.31,13.31,0,0,1-1.53.31l1.51-.32Z"/><path class="cls-3" d="M186.46,90.6c2.61-1.17,3.21,1.29,7.53.06-1.75.44-3.6.85-5.49,1.26C185.78,91.17,190.36,91,186.46,90.6Z"/><path class="cls-3" d="M223.33,84.21l.16,0C223.75,84.09,223.62,84.15,223.33,84.21Z"/><polygon class="cls-2" points="68.94 120.82 69.01 121.14 66.53 121.48 68.94 120.82"/><path class="cls-2" d="M69.44,121.27l4.18-.65L61.8,124.39,50,128.28l.63-.67c-.26-.23,4.65-1.77,9.51-3.28S69.87,121.42,69.44,121.27Z"/><path class="cls-2" d="M70.43,120.44c1.91-2,4-.75,6.52-2.49-1.71,1.15-2.84,2.26-4.75,2.49Z"/><path class="cls-4" d="M77.6,115.55c1.35-.12,2.71-1.12,3.49-1.14C80.94,115.52,78.74,115.35,77.6,115.55Z"/><path class="cls-3" d="M79.91,110.79a4.06,4.06,0,0,1,.59-.19A5.18,5.18,0,0,0,80,111Z"/><path class="cls-3" d="M80,111l.1.45C79.58,111.37,79.65,111.2,80,111Z"/><path class="cls-3" d="M80.5,110.6a8.14,8.14,0,0,0,1.34-.9l-.57.09c.72-.34,1.94-1.09,2.37-1-1.51.37-1.44.68-1.3,1.32l2.43-.64C84.75,111.13,82.67,110.06,80.5,110.6Z"/><path class="cls-4" d="M88,108l-2.23,1.58C84.84,109,87.06,108.26,88,108Z"/><path class="cls-3" d="M91.91,107.9c-.5.41-2.94,1-1.37,1a3.83,3.83,0,0,1-1.32.51C90.79,108.72,89,108.17,91.91,107.9Z"/><path class="cls-3" d="M89.22,109.39a3.67,3.67,0,0,1-.68.25A6.22,6.22,0,0,1,89.22,109.39Z"/><path class="cls-4" d="M64.61,120.85c.33,0,.36.13.26.27Z"/><path class="cls-3" d="M97.13,107.41l.93-.26c-.26.08-.5.17-.74.26Z"/><path class="cls-3" d="M29.37,139.27a.69.69,0,0,1-.27-.42.88.88,0,0,1,.13-.52,2.17,2.17,0,0,1,.36-.44,4.08,4.08,0,0,1,.42-.37,5.86,5.86,0,0,1,1.14-.69c1-.37,2-.81,3.08-1.33-.46-1,1.75-.9,1.65-2.09-2.36.86,2.07-.79,6.59-2.56s9.16-3.58,7.18-3.21l-1,.85L49.5,127c2.37-.46,5.78-.6,7.14-1.73.27.11-4.6,1.69-9.44,3.26s-9.59,3.2-9.17,3.23c-2.19-.72,26.24-10,26.84-10.65l.53.57c3.32-1.82,5.31-3.49,8.15-4.89l.92.6c-2.27.42-2.7,1.15-4.82,2.2,3.82-1.35,4.67-1.1,7.59-2.14-.43-1-2.71.25.85-1.45,1.21.12-.92,2,2.35.8,4.12-.92,2.85-2.23,6.34-3.37l-2.49.31c1.29-.44,3.64-1.38,5.06-1.19-1.5.37-5.06,2.07-4.65,3.09,1.43-.68,4.84-1.26,6.12-1.7l-.58,1c1.62.26,2.14-1,4.13-.88,1.58-.9-1.34-.77-.48-1.34a10.47,10.47,0,0,0,4.85-1.19c-1.24-1.33-3.79,1.57-6.33.66l3.21-.61c1.53-2.09-5,1.44-4.34-.08,1.9-2.26,5.34.14,7-2.5-1.56,0-6.22,1.3-5.78.58,1.8.11,2.67-1.32,4.87-2.15l2.94-.06c1-.81.09-.56-.91-.62a41.28,41.28,0,0,0,7.74-1.73,47.89,47.89,0,0,1,9-1.81c3.32-1.12.25-.8,1.64-1.75,2,.45,4.9-1.11,6.78-1.55.58-.07,1.36-1.25.72-1.49l-4.59,1.76c.1-.56-.8-1.2-2.47-.64,1.65,1.51-7,.66-6.75,2.8l-.18-.95-5.87,2.24.21.08c-.06-.33-4.9,2.07-8.33,2.6.87-.57,6.53-1.78,3-1.88a21.69,21.69,0,0,1,4.9-1.48,49.33,49.33,0,0,0,6.48-1.72l-1.05-.39a35.41,35.41,0,0,1,7.9-2.34c2.86-.6,5.84-1,8.45-1.81l-1.35,1.25c1.94-.13,4.5,0,6.07-1.18-2.25.6-1.21-.18-.89-.65a34.78,34.78,0,0,1,5.39-1.53c2-.43,4.22-.87,6.28-1.52,0,0-.16.23.05.32l4.27-1.53a9.44,9.44,0,0,1,4.34.31c.74-.31,2.65-.68,1.82-1a4.26,4.26,0,0,0-1.1.18c2-1.42,1.62,0,4.29-1.2-2,1.24.91,1,.83,1.87,3.18-1,0-1.51.32-2,4.07-.34,4.72.26,8.73-.4.13-.55-2.89.24-3.34-.26a6.44,6.44,0,0,0,2.65-.66l-2.53.11a62.74,62.74,0,0,0,12.84-2.09l-.41-.19,2.87-.5-.86,1.14c1.5-.53,3.31,0,4-.89l-.58,0,1.88-.65-1.82,1.29c2.51-.07,5.6-2.54,9.65-3,1.08,1.15-6.87,1.52-7.1,3.29,1.36,0,3.69,0,4.42-.61-.24-.42-1.2-.28-2.16-.14,3.38-1.41,8.86-.86,10.87-2.65l-2.73-.12c3.06-.65,5.29.78,6.19-.33l-2.19,2a24.2,24.2,0,0,1,5-1.43,42.31,42.31,0,0,0,4.9-1.21c0-1-4.24.58-4.06.36l1.31-.87c4.66,0,1.39.42,7,.25l0-.65c1,.37,2.67-.08,3.89-.37s2-.39,1.16.56c-.52-.08-1-.16-1.56-.22l.22.75,6.36-1.2c-.56.64,2.52.16,1.77,1l2.3-.93c1.18,1-4.21,1.75-4.37,2.61.13.49,1.24.32,1.77.19-2.75,1.1-4.35-.66-7.19-.39l-1.32.87,0-1a5.56,5.56,0,0,0-2.44,1.53c-2.94-.94-5.73,1-10,1.29,3.42-1-2.36-.63-1.8-1-1.92.26-6.38,2.7-8.19,1.79-1.18-.28,2.24-1-.45-.85-1.72.39-2.82,1.07-1.64,1.35-1.89.45-4,.79-6.14,1.12s-4.34.72-6.43,1.11l.89-.81a10.78,10.78,0,0,0-6.36,2.22c-.41-.19-.58,0-.24-.41-3.55-.45-4,2.08-9.53,3,.49.83,3,.41,4.59-.38l-.25,1.1a104.85,104.85,0,0,0,13.74-3.35l-1.63,1.07c3.55.76,2.15-1.75,5.53-.76,2.24-.76-1.76-.23-.1-1,1.69,0-.12,1.82,2.63,1.45-5.09,1.09-10.52,2.26-16,3.31s-11.05,2.34-16.36,3.5c-.16.23.41.18,1,.13-1.7,1-10.1,2.37-18.15,3.78s-15.68,3.16-15.8,4.62c-.63-.24,1-1.12-1.26-.48-.15.24-.66.64,0,.87-6,.1-13.18,3.53-20.19,4.57.27.39-1.16,1-1.1,1.37-2.61-.35-6.27,1.83-8.61,1.9l.85.29-6.82,2c-.14.24.78,0,1.35-.12-1.42.68-1.92.21-2.19-.18l-2.71,2c-4.72.4-9.61,2.23-14.65,4.15S56.08,128,50.81,129.11a11.27,11.27,0,0,1-5,3l1.34-.16c-2.38,1.57-.29-.38-2.4.7-1.32,1,0,1.44,1.85.28,1.38-.12.68.43-.16.94-4.08,1.3-8,2.44-11.89,3.33-1,.22-1.92.43-2.86.62a1.08,1.08,0,0,1-.4,0,.89.89,0,0,0-.23,0,1.82,1.82,0,0,0-.52.1c-.2,0-.36.12-.51.16a2.14,2.14,0,0,0-.48.28.79.79,0,0,0-.31.42A.41.41,0,0,0,29.37,139.27Z"/><path class="cls-3" d="M338.44,95.74c-.26-.29.41-.21.91-.19s.93,0,.41-.73a7.4,7.4,0,0,0-2-1.08,18.94,18.94,0,0,0-2.83-.8c-2.15-.48-4.48-.86-6.86-1.21a136.11,136.11,0,0,1-13.8-2.33,28.24,28.24,0,0,0-4.75-1.49.67.67,0,0,0,0,.5c-2.28-.25-6-.24-8.26-.82-.66.15-1.18.82.08.73-3.5.41-5.94-1.62-7.93-1.14,1.67.52-1.71.6.29,1-3.64,0-3.23-2.49-6.13-2.87-.18.19-.36.38.22.46-3.14-1.17-9.72.46-10.06-1.24l-1.28.73c-1.4-.55-1.05-1-3.38-1.16-1.51.28.06.64-.49.91-.64-.7-4.7-.35-6.57-1.32-.13-1.09,3.32,1.44,5.14.44.06-.21-.21-.28-.59-.3a75.71,75.71,0,0,1,13.09,1.63,47.07,47.07,0,0,0,11.73,1.21,3.34,3.34,0,0,0,3.87-.52c-1.4-.44-5.44-1.35-5.6.19l-2.43-1.09c-.94,0-.87-1.5-1.27-1.77,1.74.23,3.79-1.19,1.44-1.83,4.62,0-1.61,3.2,2.49,3l.64-1.09c-.8.56,2.7,1.23,4,.93l-.53-.25c5.4.54,11.71,1,18.17,1.52s13,1.17,19,1.94c1.26,1.6,3.41,1.64,5.5,2a8.69,8.69,0,0,1,2.93.84,2.52,2.52,0,0,1,1.47,1.94c.5.27.44-.19.37-.56,0-.19,0-.36.09-.39s.41.06.9.48c1,.91.31,1.43.12,1.46a6.31,6.31,0,0,1,.66.86c-1.07,1-2.5.68-3.73.87-.64.07-1.2.24-1.91.36A22.4,22.4,0,0,1,338.44,95.74Z"/></g></g></svg>