<svg xmlns="http://www.w3.org/2000/svg" viewBox="0 0 623.74 331.07"><defs><style>.cls-1{fill:#65dcf7;}</style></defs><g id="Layer_2" data-name="Layer 2"><g id="Layer_1-2" data-name="Layer 1"><path class="cls-1" d="M20.15,99.65c12.38,9.19,28,19.48,44,13.59,13.68-5,20.64-19.89,21.46-33.62.61-10.25-1.41-20.42-3.41-30.41-.24-1.17-3.08-.43-2.9.77,2.16,14.33,16.36,24.11,30.27,24.33,16.44.27,31-10,39.91-23.16,5.25-7.78,8.81-16.56,11.51-25.5l-2.91.3a213.21,213.21,0,0,0,9.65,60.57q2.61,8.34,5.91,16.44l2.79-1c-4.27-5.54-11.44-6.13-17.85-4.89-7.73,1.5-14.54,5.53-21.19,9.55a274.29,274.29,0,0,0-23.24,15.71,226.89,226.89,0,0,0-20.78,17.36c-6.66,6.39-12.61,13.75-15.4,22.68-.37,1.17,2.57.8,2.91-.3,2.36-7.56,7.19-14,12.67-19.56a187.33,187.33,0,0,1,19-16.47Q122.95,118,134,111c6.46-4.1,13.13-8.57,20.46-11,6.55-2.15,14.6-2.89,19.28,3.19.59.75,3.22.08,2.79-1A212.49,212.49,0,0,1,162,43.09q-.84-8.69-1-17.44c0-1.43-2.61-.71-2.91.3-4.43,14.66-11.57,29.53-24.35,38.67a40.32,40.32,0,0,1-20.47,7.76,30.47,30.47,0,0,1-19.23-5.2,26.85,26.85,0,0,1-11.83-18l-2.9.77c3.06,15.24,6.4,32.14-.8,46.76-2.78,5.62-7,10.84-12.65,13.78-6.53,3.41-14,3.1-20.8.79-8.32-2.8-15.66-8-22.64-13.19-.88-.65-3.51.61-2.28,1.53Z"/><path class="cls-1" d="M10.15,77.72a5.52,5.52,0,0,0-5.79,4.91,4.57,4.57,0,0,0,.95,3.5,5.31,5.31,0,0,0,3.82,1.71c3,.12,6.39-1.66,7.38-4.67s-.68-6.56-3.28-8.37C9.63,72.3,4.55,73,.85,74.87c-.48.25-1.13.79-.72,1.37s1.46.4,2,.15a9,9,0,0,1,7.84-.62,6.86,6.86,0,0,1,4,5.73A4.44,4.44,0,0,1,13,84.41a3.88,3.88,0,0,1-1,.91,4.1,4.1,0,0,1-1.06.47,3.14,3.14,0,0,1-1.11.09,2.68,2.68,0,0,1-1.15-.37,2.91,2.91,0,0,1-1.41-2.06,4.19,4.19,0,0,1,.52-2.79,3.39,3.39,0,0,1,.74-.85s.3-.19.08-.06c0,0,.44-.18.12-.06.24-.09.08,0,0,0l.27,0c-.13,0-.12,0,.06,0A2,2,0,0,0,11,78.8c.31-.62-.26-1-.84-1.08Z"/><path class="cls-1" d="M78.39,32.81c-.88-4.32-6.72-5.1-9.59-2.33a5.32,5.32,0,0,0-1.59,4.91,4.87,4.87,0,0,0,3.25,3.4C73.84,40,78,38.48,80.83,36.55A10.72,10.72,0,0,0,85,31.76a4.83,4.83,0,0,0-1.36-5.14c-4.27-4-10.25-1.33-14.59,1-.5.27-.76.91-.22,1.26a2.15,2.15,0,0,0,2.06-.24c2.78-1.51,6.16-3.37,9.21-1.52a4.43,4.43,0,0,1,2.25,3.32c.12,1.69-1.06,3.07-2.24,4.13a9.9,9.9,0,0,1-6.49,2.75,3.6,3.6,0,0,1-3.46-4.65c.31-1.09,1.15-2.24,2.31-2.07a3.73,3.73,0,0,1,3,2.94c.23,1.12,3.13.39,2.89-.77Z"/><path class="cls-1" d="M160.41,6.17c-.48-1.44-2.61-1-3.65-.56-1.34.51-2.57,1.53-2,3.1s2.56,2.64,4.05,3.37a14.31,14.31,0,0,0,5.66,1.51c3.62.12,7.82-1.42,9.5-4.87,1.51-3.11-.23-6.33-3.17-7.76-4.32-2.09-9.33-.35-13.52,1.21-.26.1-1.19.44-.86.84s1.56,0,1.87-.15c2.69-1,5.6-2.16,8.5-1.37,2.23.61,4.36,2.28,4.78,4.65A5.75,5.75,0,0,1,168.51,12c-2.32,1.22-5.66-.17-7.73-1.31-1.22-.66-2.77-1.53-3.17-3a1.83,1.83,0,0,1,0-.9c.05-.17.29-.38.31-.52,0,.18.06-.08.07-.06s-.82.13-.8.25.31.33.36.48c.22.69,3.1-.15,2.9-.78Z"/><path class="cls-1" d="M200.94,80.7c-1.89,15.53,6.58,29.51,20.4,36.31,14.25,7,30.58,6,45.62,2.33,30.16-7.3,59.26-21.58,84-40.17a219.89,219.89,0,0,0,37.73-35.94l-2.55-.39c-6.43,10.88-5.88,24.36-.52,35.56,5.73,12,16.54,20.18,28.92,24.47,30.1,10.43,61.42-2.1,89.77-12.12l12.11-4.28c2.58-.91,4.83-1.86,6.52-4.15.86-1.16,1.95-3.09,1-4.5-1.24-1.77-3.44-.9-4.87,0-9.77,6.09-5.67,22.17-3.72,31.16a150.92,150.92,0,0,0,34.42,67.16c19,21.54,43.86,37.76,71.57,45.49.51.14,2.81-.31,2.32-1.25-6.72-12.76-19.94-20.52-34-22.62-16.26-2.44-32.7,3-46.59,11.15-26.49,15.6-46.18,41.71-55.7,70.76a127,127,0,0,0-5.9,50.84l2.89-.78c-4.8-26.9-31.31-42.91-55.56-50-28.75-8.42-61.6-7.12-89,5.32C327,290.86,314.93,300,310.08,313.72l2.91-.31c1.47-24.26-15.3-46.21-36.83-55.85-25.31-11.32-54.39-7.84-79.85,1-15.88,5.53-30.94,13.08-45.94,20.63l2,.54c5.76-16.31-4.21-34.37-18.95-41.92-17.92-9.17-39.43-5.26-56.87,3-11,5.21-21,12.11-31,19l2.29.59c7.61-14.42,17.44-33.19,10.12-49.63C52.81,199.05,39.44,190,26.63,195.61c-1.84.8-.18,2,1.2,1.38,12.62-5.51,25.55,7,28.71,18.48,4.24,15.45-4.36,31.6-11.34,44.83-.68,1.29,1.76,1,2.29.6,16.08-11.11,33.07-23,52.88-25.83,17.84-2.58,37,2.8,46.35,19.26,4.43,7.84,5.82,17.17,2.79,25.74-.35,1,1.69.72,2.05.53,24.71-12.43,50.23-25.32,78.18-27.91,25.25-2.34,51.94,4.5,68.25,25,8.1,10.19,12.88,22.9,12.09,36-.08,1.41,2.59.61,2.91-.31,4.35-12.3,14.95-20.76,26.39-26.23,12.83-6.15,27.18-9.41,41.32-10.52,27-2.12,56.81,3.83,78.71,20.43,11,8.31,19.65,19.64,22.11,33.41.2,1.14,3,.39,2.89-.78-2.55-28.64,5.27-57.72,21-81.69a124.29,124.29,0,0,1,29.25-31.26c13.19-9.84,29-17.63,45.8-17.78,16-.15,32.62,7.63,40.27,22.16l2.32-1.25c-44.39-12.37-81.29-47-98.13-89.69a140.3,140.3,0,0,1-8.61-33c-.68-5.12-1-11.45,2-15.94.45-.65,2.2-3.11,3-2.11.61.8-.78,2.56-1.24,3.11-2.32,2.82-7,3.55-10.34,4.72C482.7,96.6,453.28,109.67,424,103.31c-13.57-3-26.57-10.26-33.75-22.49C383.55,69.4,382,54.69,388.91,43c.75-1.27-2-1-2.54-.39A222.69,222.69,0,0,1,319,97.27a241,241,0,0,1-40,16.85c-15.65,5-32.79,9-49,4-16.55-5.17-28.43-19.87-26.26-37.7.15-1.27-2.78-.79-2.91.31Z"/></g></g></svg>