<svg xmlns="http://www.w3.org/2000/svg" viewBox="0 0 702.5 184.5"><defs><style>.cls-1{fill:#ce2d8d;fill-rule:evenodd;}</style></defs><g id="Layer_2" data-name="Layer 2"><g id="Layer_1-2" data-name="Layer 1"><path class="cls-1" d="M234.26,94.36c.74-1.3,1.72.15,2.45.08.92-.1,1.44-1.14,2.58-.63C238,95.38,235.48,95.21,234.26,94.36Z"/><path class="cls-1" d="M348.27,72.77c-.14-.55.73-.39,1.18-.54a6.73,6.73,0,0,1,1.19-.53,18,18,0,0,1,1.84.16c.42,0,.4-.92,1.2-.29C353.07,73.11,350.54,72.18,348.27,72.77Z"/><path class="cls-1" d="M425.92,65.72c-.16.33-2.8.49-2.45-.32C424.35,65.46,425.49,65.34,425.92,65.72Z"/><path class="cls-1" d="M434,65.19c-.16-.56,2.18-.76,1.85.1C435.26,65.73,434.72,65.3,434,65.19Z"/><path class="cls-1" d="M463.64,64.25c-.36.53-1.13.69-2.23.56l.06-.72A2.44,2.44,0,0,1,463.64,64.25Z"/><path class="cls-1" d="M106.05,94.5c.14.54-1.33.85-1.85,1.3C103.87,95.19,105.52,94.43,106.05,94.5Z"/><path class="cls-1" d="M129.65,82.17c-.81.47-1.12,0-1.93.42C127.49,81.79,129.59,81.06,129.65,82.17Z"/><path class="cls-1" d="M150.23,71.5c-.68.37-.82-.15-1.59.37C148.39,71.2,150.18,70.57,150.23,71.5Z"/><path class="cls-1" d="M48.91,120c-.47-.76.53-1.24,1.29-1.57C50.53,119,49.6,119.49,48.91,120Z"/><path class="cls-1" d="M572.11,28.84c.26-.72,2.34-.49,2.95,0-.17.51-1-.11-1.63,0C573.27,28.84,572.48,29.65,572.11,28.84Z"/><path class="cls-1" d="M102.73,70.07l1.81-.89C104.89,69.83,103,71.14,102.73,70.07Z"/><path class="cls-1" d="M98.8,72.74a3.16,3.16,0,0,1,3-2.21C102,71.41,99.82,72,98.8,72.74Z"/><path class="cls-1" d="M350.92,7.07c-.64-1.3,2.38-1.3,2.31-.33C352.18,6.67,352.08,7.22,350.92,7.07Z"/><path class="cls-1" d="M1.13,133.16c-.94-.28.61-2.06,1.32-2.33C2.89,131.27,1.87,132.26,1.13,133.16Z"/><path class="cls-1" d="M410.39,57.54c1.12,0,2.51-.38,3.74-.36.38,0,.64.23,1.24.28a40.32,40.32,0,0,0,8.1,0,9.53,9.53,0,0,0,2.22-.89c.28-.1.8-.17.95-.21,1.25-.37,1.72.24,2.79.39,1.57.22,3.73-.26,5.95-.16.47,0,1.11.29,1.55.32,1.15.1,2.53-.14,3.76,0,.58,0,.68.29,1.23.3.34,0,.82-.22.95-.19.74.15.64.55,1.22.55a8.74,8.74,0,0,1,1-.43,3.13,3.13,0,0,1,2.47.64c.13.09.2.45.28.5s.7,0,.93.07.54.48.91.55a4.59,4.59,0,0,0,2.23-.56c-.9-.72-1.87,0-2.82,0,.13-.54-.89-.33-.89-.79,1.35-.57,2.92.33,4.37.33.85,0,1.32-.49,2.22-.32,0,.24.23.3.28.5,0,1.48-2.29.85-2.36,2.23-.34-.38-.19-1.09-1.18-1.05-.92.77-1.37.12-2.2.08-.41,0-.43.24-.95.17s-.4-.31-.92-.31c-1.45,0-3.14.82-4.42.7-.72-.06-1.16-.85-1.84-.58-.79.12,1.08.86-.36,1a5.64,5.64,0,0,1-2.42-1.34c-.59,1-2.39.41-3.47.54-.5.06-.74.4-1.27.41-3.63.1-7.51-1.07-11.19-.51-.54,1.32,2.36.17,2.13,1.27a15.15,15.15,0,0,0-4-.37c-.6.08-.27.92-1.26.68,0-.94-2.37-1.88-3.08-.82.18.42,1.47,0,1.54.53,0,.69,0,1.31-1,1.17.22-.58.66-1.22-.58-1.22-1.26.27.88,1.17,0,1.2l-1.55-.05,0-1c-.76-.32-1.34.35-2.18.41-.39,0-1.12-.28-1.55-.29-1.22,0-2.88.5-4.35.58-.93.07-1.85-.11-2.47,0s-1.24,1.63-1.86.22c.2-.48,1.45-.14,1.56-.7-1.57-.51-3.88.64-5.57,0-.6.35.53,1-.63,1.19a21.62,21.62,0,0,0-3.71.45c-2.34.18-5-.23-6.79.18-.68.17-.9.68-1.53.74s-1.36-.46-2.16-.44c-.51,0-1,.43-1.53.5-1.05.13-2.19-.24-3.07.29.46.28,1.37.19,1.24.94-.87,0-2.1.24-2.16-.45-.34-.6,1.43-.95,0-1-.44,0-.65.18-.92.26-.47.13-.61-.06-.92,0-1.14.26-2.3,1-4,.78-.62,2.34-5.08,0-6.1,1.58-.12-1-1.55-1-3.08-.83-.2.61,1.37.93.35,1.43-1,.15-1.21-.29-1.85-.41,0-.47.82-.34.58-1-.76.23-2.65-.36-2.43.58.1,1.13,1.63-.5,1.55.66-1.08,1.41-3.25-.25-4-.32s-1.44.34-2.43.34c-1.14,0-1.89-.39-2.43.34-.73,0-.61-.81-1.57-.66.18,1.32-2,.39-2.72.61-.23.07-.23.71-.57.76-.56.1-1.36-.14-2.13-.09-.57,0-.66.29-1.2.33-1.25.08-.84-.26-1.5.34s-2,.22-3,.45c.08.59.12,1.15-.21,1.46-1.49-1.17-2.63-.23-3.94,0a18.42,18.42,0,0,1-3.61.49c-.43-.11.27-.73-.67-.68-1.75.07-3.39,1.35-5.08.94-.25.48,1,.71.08,1a27.16,27.16,0,0,0-7.44,1.46c-.31-1.1-2-.87-3.43-.87-.24.48,1,.71.1,1-1.42.17-2.91,1.06-3.82,1.1-.43,0-.75-.44-1.26-.35s-1,.57-1.43.68-1.11-.1-1.52,0c-.87.12-1.46.49-2.06.52s-1-.26-1.55-.29a13.13,13.13,0,0,0-3,.16c-.69.14-1,1.13-2,1.22-.46,0-.46-.56-1.26-.32-.06,1-.48.73-.79.83-.86.28-3,.6-3.25.66-.47.11-1.36-.11-1.82,0s-.75.55-1.11.67-.5-.16-.93-.09c-1.07.18-3.44.71-4.69,1a9.24,9.24,0,0,0-1.41.71c-.27.11-.41-.2-.63-.14a40.62,40.62,0,0,1-4.91,1.53c-.42.06-.6-.27-1.22,0-.08,0-.38.51-.51.57-.31.13-.89,0-1.18.19s-.48.62-.76.85c-.88.73-1.27.59-2.59.73-1.13.13-2.44.56-3.22.64-.15-.44.23-.59.12-1-.87-.1-.87.69-1.67.81-.65.1-.88-.38-1.55-.18s-.48.39-1.08.7c-.31.16-1.78,0-1.37.76a8.68,8.68,0,0,1,3.3-.16c.41.08,1.54-.07,1.31.47a4.88,4.88,0,0,1-1.5.06,5.63,5.63,0,0,0-2.39.22c-.07,0-.27-.22-.63-.12-.72.2-1.09.46-1.8.1-.38.37-.27,1-.63,1.35-1.43-.43-2.08.61-2.87.81-.48.12-.82-.21-1.22,0-.67.35-.69,1.18-1.54,1.3-1.23.1-1.84-1.12-.69-1.81,1.54.08,3,.1,3.74-1a8.09,8.09,0,0,0-4.37.91c-1,.63-.49,1-1.43,1.81a6.91,6.91,0,0,1-1.1.5c-.1.06-.6.68-.86.21,0-.49,1.88-1.15.89-1.44-1.23.37-1.3,1.11-2.1,1.47-1.52.68-3.53.71-5.19,1.2-.38.11-.64.6-1,.73s-1.23,0-1.79.17c-.77.28-1.71.57-1.5,1.33.36.58,1.34,0,1.84.07.09,0,.28.43.4.4.83-.2.67-.88,1.56-1.1,1.35,1,2.25-.2,3.51-.56.48-.14,1.3-.06,1.77-.17,1.89-.45,3.9-1.41,5.94-1.87.51-.11.93.06,1.49-.09.73-.2,1.28-.66,1.93-.87s1.56-.22,2.33-.45c1.19-.36,2.16-1.3,3.31-1.63.3-.08.67.09,1.21,0A48.65,48.65,0,0,0,272,85.59c.76-.25,1.24-.69,2-.87,1.93-.46,4.16-.93,5.84-1.19.44-.07,1.06.11,1.51,0,.61-.15,1-.81,1.65-1,.27-.07,1.19,0,1.8,0a33.6,33.6,0,0,0,3.5-.81c.42-.07.57.2,1.21,0,.82-.2,1.52-.69,2.28-.86,1-.24,2,0,3-.17.48-.09.88-.53,1.41-.67,1.58-.41,3.66-.25,5.05-.65.58-.17.83-.55,1.42-.67,1.22-.25,2.31-.06,3.59-.23,1.79-.23,3.93-1,5-1.13.41,0,1.12.18,1.52.09s.27-.59.82-.8c-.05,0,1.16-.12,1.2-.12a18,18,0,0,0,1.82.06c1.87-.26,3.76-1,5-1.22,1.57-.24,2.38,0,3-.29,1.11-.54,2.31-.22,3.59-.36a26.32,26.32,0,0,1,2.65-.72c.44,0,.57.22,1.23.16a19.22,19.22,0,0,1,3-.45c.44,0,1.21.42,1.54.38a4.77,4.77,0,0,1,1.15-.8c.66-.24,1.62-.24,2.09-.39s.66-.47,1.17-.56a49.88,49.88,0,0,1,5.11-.6c.62,0,.88.25,1.52.14,1-.19,1.93-.75,3-.88a22.36,22.36,0,0,1,2.45.14c3.07-.09,6.16-.94,9.08-1.09-.11.75.3,1.06,1.25.91.81-.51-1.11-1.16.25-1.46a4.73,4.73,0,0,0,3.65-.15,40.17,40.17,0,0,1,4.57-.57c.49-.08.75-.46,1.21-.49s1.07.29,1.53.21.79-.46,1.22-.5.69.48,1.23.47.82-1,1.52-.51c1.11.32,1.07,1.22,2.46,1.17.9-.71-.77-.41-.63-1.2,1.51-.1,3.09.07,4.59-.07.5,0,1-.43,1.53-.5.94-.13,2.11.11,3.06,0,1.22-.12,2.15-.67,3.07-.69.44,0,1.41.32,1.84.26.82-.12,1.29-.66,2.16-.7.64,0,1.48.47,2.14.49.35,0,1-.43,1.55-.46s1.19.3,1.53.25.55-.35.93-.47a16.47,16.47,0,0,1,4.62-.42c.56,0,.7.31,1.23.28s1-.39,1.55-.43,1.05.12,1.54.05,1-.4,1.56-.43c1.23-.08,4.23-.11,4.63-.09.25,0,.43.29.61.26.93-.16,1.17-.67,1.88-.67.55,0,1.27.59,1.83.54s1.06-.47,1.88-.66c1.6-.38,3.15-.41,3.36,1.1.88-.09,1.91.29,2.78.15.66-.11.81-.64,1.28-.89,1.36-.73,4.39-.59,6.24-.63.39,0,.42.37.92.29.18,0,.27-.5.64-.45a2.66,2.66,0,0,0,.29.5c1.17.5,2.65-.57,3.45-.54s1.48,1,2.13.6c.48-.32,1,.71,1.26-.16-.38-.06-.73-.13-.59-.53.93-.27,1.48-.73,2.2-.32s1,.11,1.56.12.4.36.91.31.63-.4,1.27-.39,1.47.43,2.16.4c.41,0,.44-.22.95-.17a12.49,12.49,0,0,0,1.84.37c1,0,1.43-1.11,2.53-.29.05.64-1.73-.35-1.3.63,1,.46,1.19,0,2.48.18-.17-.88.68-.73,1-.89a3.1,3.1,0,0,1,1.92-.58c.52,0,1.09.37,1.53.35.82,0,1.79-.53,2.55-.5s1.22.58,1.83.66a10.66,10.66,0,0,0,2.2,0c.57-.13.66-.58,1.31-.6,2-.08,4,.82,6,.07.28.34.21.91.84,1,1-1.17,2.78-1.11,4.48-.79.42.07,1.46.39,1.84.42.06,0,.8-.35,1-.38a24.89,24.89,0,0,1,4.08.21c1.13,0,2.05-1,2.8.31-.56.16-1.67-.19-1.63.54,2.08.06,4.06.71,5.95.41.65-.1,1-.54,1.64-.54s.72.27,1.22.37c1.87.4,2.34-.1,3.48-.1.37,0,.43.3.91.35a26.28,26.28,0,0,0,3.15.15c.16,0,.12-.58.4-.67.84-.27,1.87.5,1.93-.24a2,2,0,0,0,2.1,1c.24-.73-1-.77-.17-1.24a54.78,54.78,0,0,1,7.87.51c.79.08,1.82,0,2.22,0,0,0,.49.55.57.55,1.2,0,1.37-.83,2.31-.67.33.62,2.44.24,2.41,1.07.65-1.37,3.67-.17,5.75-.17,1.06,0,1.91-.36,2.61-.36.39,0,.56.4,1.21.41s1.09-.26,1.64-.25.92.38,1.21.41,1.19-.29,1.64-.25c1.18.09,2.31.42,3.44.48,1.36.08,2.41-.24,3.51.06.54.14,1,.64,1.5.71,0-.57-.52-1.12.49-1.14.81.51.72,1.5,2.33,1.57.85-.06-.54-1.22.8-1.09,2.58,1,5.05.36,7.24.87.49.11.19.66.52.81s.9-.15,1.6,0c1.28.27.46.68,1.49.71s1.24-.69,2.66-.53c.48.14.12.62.51.81-.1,0,2.17.14,2.23.13,1-.16.78-1.42,1.76-.93,1.4-.08.2,1.19,1.41,1.21.64-.52-.22-.89.51-1.13.93.33,1-.26,1.92.07l-.16,1c1.31,0,1.94.43,3.76.62-.68-1.91,2-.23,2.78-1.25.84.36.55,1.3,1.69,1.5a4.3,4.3,0,0,1,2.35-.58c.68.09.93.7,1.76,1a7.24,7.24,0,0,0,2.5.44,4,4,0,0,1,1.69-.43c1,.1,2,1.1,3.1.78.82.22-.06-1.37,1.1-.78.69.08,0,.87.11,1.24,1.4.66,2.25-.2,3.26-.16.44,0,1,.42,1.52.51.9.16,1.73-.19,2.87.26.37-.39-.8-1,.17-.94,1.55-.06,2.41,1,4,1.21.73.12,1.55-.37,2.32-.3,1.34.12,3,1.23,3.63,1.4,1.31.34,2.87.28,4.12.51.73.14,1.44.56,2.15.64a13.59,13.59,0,0,0,1.34-.24c1.68.08,4.18,1.07,6.59,1.24.68.05,1.31-.19,2-.11a43.33,43.33,0,0,1,7.53,1.44c.44.16.66.56,1.16.72s.74-.15,1.3,0a9.81,9.81,0,0,1,2.06,1.13c1,.46,2.17.48,2.77.78,1.5.74,2.85,2.39,4.93,1.46-.38-.17-.59-.43-.49-.83.75-.43,1.17.57,1.92.14.25-1.18-.72-1.78,0-3.19.68-.2,1.13-.65,2.07-.57.44-.92-1.42-.74-1-1.66a7,7,0,0,0,3.14.62c.31-.73-.29-1.7,1.63-1.63.2-.77-1.2-1.32-.3-1.77,1.29.93,1.47,0,2.61,0a25.83,25.83,0,0,1,4.79.84l1.17.32c.38.11.8.22,1.09.32l1.88.59a19.67,19.67,0,0,1,2.33.62c.32.15.4.53.62.69.45.29,1.18.53,1.65.79a5,5,0,0,0,2.59,1,5.5,5.5,0,0,0,1.65-.07c.35-.09.48,0,.74-.43.42-.72-.2-1-.07-1.63.18-.36.71.18.91-.1-1-.74.31-1.35.35-2a16.14,16.14,0,0,0-.71-1.89c0-.3.22-.52,0-.77-.68-.83-2.28-1.2-3.45-1.81-.35-.18-.45-.59-.71-.74-1.27-.73-2-.61-2.08-1.61.28-.57,1.09-.45,1.29-1.13a5.88,5.88,0,0,0-3.61-2.66c-.75-2.46,2.27-2,3.91-.75.65-.75,2.29-.26,3.56-.16,1-.16-.29-1.42,1.12-1.15,1.33,1.18,2.77,1.38,4.15,1.87a29.88,29.88,0,0,1,3.08,1.75c.77.37,1.67.38,2.44.81.44.24,1,.85,1.42,1.18s1.07.46,1.36.66c.52.35.84,1,1.35,1.34a27.22,27.22,0,0,1,4.79,4.78c.37.45,1,1.1,1.12,1.3.4.84.24,1.44.55,2.16.17.39.83.75,1.07,1.48A19.1,19.1,0,0,1,700.8,80a13.9,13.9,0,0,1,.56,6.19c1-.48,1.24-1.77,1.1-3.2s-.69-2.94-.93-4.09.1-1.59,0-2.49a21.17,21.17,0,0,0-2.1-5.33c-.53-.7-.29,1.17-1.3-.15a23.21,23.21,0,0,0-2.1-2.42,23.89,23.89,0,0,0-2.33-2l.6-.75c-1.17-1.28-1.56-.56-2.54-1.29.09-1.22-1.5-1.51-2.71-2.24s-3.8-2.26-4.18-2.62c-1-1-1.66-.61-2.82-.91-1-.26-1.53-.67-2.39-.87.65-.91-.48-1-1.08-1.36-.1-.07-.39-.54-.56-.68a10.86,10.86,0,0,0-1.56-1.21,15.78,15.78,0,0,0-2.14-.56c-.44-.18-.61-.5-1-.73-.59-.38-.64-.26-1-.71-.13-.17.47-.27.47-.39s-.6-.42-.64-.63c-.11-.56.27-1-.07-1.48s-1.31-.41-2.17-1.17c-.44-.4-.53-1.32-.93-1.9-.19-.27-1-.45-1.18-.72s.44-.29.42-.41c-.1-.55-.9,0-1.27-.25-.11-.07.43-.37.41-.41s-.84-.36-.9-.42-.46-.2-.59-.36-.12-.74-.18-.77c-.48-.27-1.08.06-1.31,0s-.15-.59-.86-.66c-.39,0-.78.4-1.36.23-.05,0-.33-.51-.54-.6-.46-.21-1.12-.11-1.58-.31-.67-.3-.54-.68-1.17-.73,0,0-.34.4-.41.41-.34.06-1-.34-1.27-.25s-.33,1-1.18,1c-1.34.05-.54-.16-1.09.52a1.52,1.52,0,0,1-.68.11,1,1,0,0,0,.13,1c-.91,0-1.49.46-2.4.51-.19.71.49,1.48-.36,1.88-.48-.74-2-.79-2.4-1.19-.12-.12-.06-.69-.18-.77-.3-.19-.94-.09-1.27-.24s-.3-.44-.86-.66a15.38,15.38,0,0,0-2.49-.72c-.14,0-.51.58-.77.59s-1-.77-1.54-.54c-.74.27-1.08,1-1.9,1.34-.2.08-.73-.22-1-.18-.83.15-.47.73-1.45.7-.74,0-1.36-.68-2.13-.89-.46-.13-1.23,0-1.94-.13a18.72,18.72,0,0,1-3.76-1c-.37-.21-.54-.08-.64-.12-.82-.3-.92-.6-1.5-.76s-.75.11-1.31,0c-1.07-.2-2.53-.6-3.45-.88a11.18,11.18,0,0,1-1.18-.71c-1.51-.66-2.64-.34-3.45-.87l-1.82-.83c-.56-.08-1,.44-2,.12-1.7-.55-2.46-1.72-3.55-2.11-.51-.18-1,.06-1.64,0-.87-.16-1.64-.62-2.51-.69s-2.58.54-3.22-.32-2.83-.19-3.87-.43c-.63-.15-.63-.43-1.19-.7-1.44-.69-1.92-.22-2.91-.27-2.93-.13-3.73-1.84-5.9-2-.8,0-1.63.48-2.35.34s-1.21-.77-1.8-1c-.92-.4-2.8-.6-4.08-1.16-.76-.33-1.16-.86-1.8-1s-1.18,0-2-.08c-.57-.07-1.55-.55-1.88-.55-.84,0-.26.6-1,.31s-2.66.51-3.35.42c-.1,0-1.18-1.25-1.57-.48.16-.31.53-.38.48-.9-.53-.05-.87-.75-1.5-1s-1.61,0-2.6-.16c-.8-.15-1.22-.64-1.64,0-.75-.19-.47-.92-1.5-1,0,.6.5.84-.46.9-.77-1.34-2.79-.86-4.1-1.12-1.85-.36-3.83-1.46-6.35-1.45-.83.36-2,1.43-3.06.76.08-.37.84-.07.75-.62-2.91-.94-2.57.58-4.32.37-.22-.5.74-.4.74-.63s-1.11-.16-.86-.84c1.2,0,3.63,0,4.25.11.41.05.41.38.93.37s.85-.33,1.36-.28c1.62.14,3.45.76,5.14.78.58,0,1.1-.28,1.67-.23,1,.1,1.84.63,2.86.68,1.9.11,4.75.7,6.78.8.35,0,.91-.24,1.35-.28.86-.07,1.67.18,2.29.11s1.1-.49,1.72-.44a2,2,0,0,0,.24.52c.29.12.44-.17.68-.13-.92-1.69,1.63-1.43,1.78-2.87-1.46-.25-2.2-1-3.78-1.1a19.75,19.75,0,0,1-2.33.12,8.38,8.38,0,0,1-1.53-.72,4.17,4.17,0,0,0-1.93-.3c-.42,0-.4-.33-.93-.38-.78-.08-1.92-.12-2.61-.16-1.13-.06-4.16-.1-4.91-.27-.52-.12-1.3-.69-1.86-.77s-1.25.24-1.68.23a32.56,32.56,0,0,1-3.58-.3c-.6-.09-1-.42-1.58-.46s-1.07.26-1.68.25c-2.37,0-6-1.08-9.37-1.31-1.14-.08-2.33.16-3.29,0-1.34-.2-2.91-.62-4.17-.83s-2.4.39-3.65.27c-1.05-.1-2.25-.69-3.5-.92a33.56,33.56,0,0,0-4.22-.53c-1.82-.1-2.8-.36-4.21-.53-1-.13-2.26.05-3.27-.17-.57-.12-1.29-.67-1.88-.71s-1.47.61-2.36.46c-.08,0-.44-.52-.95-.34-.65-.58.37-.74-.19-1.23-1.37-.39-.7,1.11-1.76,1-.73-.54-1.51,0-2-.21s0-1-.89-.83c-1.3-.06.15.77-.76.89-.87-.74-2.48-.21-3.87-.67-.64-.21-.8-.74-1.55-.89-.37-.08-.52.18-1,.13s-1.28-.4-1.61-.42a14.47,14.47,0,0,1-2,0c-.47-.09-.07-.29-.28-.52-1.34-1.48-4.63.49-5.26,0-.2-.15.77-.29.7-.42-1-.07-2.07,1.26-2.64,0,.5,0,1.2.2,1.33-.12-1.59-.81-2.09.58-3.35.66a22.28,22.28,0,0,1-3.26-.3c-1.35-.19-3.29-.39-4.22-.63-.6-.17-.95-.9-1.55-1.11a21.8,21.8,0,0,0-3.57-.57c-.47,0-.59.4-1,.41,0,0-.35-.53-.62-.53s-.33.46-.69.43-.59-.44-1.29-.33c-.74.93-2.16.35-4.62.14-4.77-.41-10.1-.65-13.08-1.19,0-.38.1-.83-.61-.75-.49.27.11.52-.37.7a12.24,12.24,0,0,1-2.64.1c-.47,0-.1-.3-.3-.5-.71-.7-3.67-.18-3.94-.21a10.59,10.59,0,0,0-1-.53c-1.91-.41-2.74.32-4,.27-.45,0-1.06-.48-1.62-.57-.34-.06-1,.16-1.65.15-.41,0-.45-.27-1-.29s-.65.2-1.33.17-.71-.29-1.3-.31-.6.28-1.33.19c-1-.11-1.46-.48-2.28-.55-.52,0-1.17.27-1.66.19s-1.11-.65-1.62-.78a15,15,0,0,0-1.65-.05c-.91-.11-2.07-.49-2.95-.57-.63-.06-.74.22-1.33.19-1.37-.07-3.37-.32-5.27-.4-1.3-.06-2.57-.35-3.62-.34-1.44,0-2.24.38-3,.21s-1.16-.89-2-1a19.74,19.74,0,0,0-2.32.46c-.38,0-.49-.24-1-.25s-.64.4-1.33.23c-.47-.11-.06-.25-.32-.48-.59-.53-2.52,0-3.31,0-2.3,0-5.09-.65-6.95-.78-.52,0-1.15.11-1.66,0s-.79-.41-1.33-.47c-1.28-.12-2.62.08-3.32.05a2.5,2.5,0,0,0-1-.22,15.33,15.33,0,0,1-1.65.27c-.66,0-1.36-.61-2-.69s-1.06.56-2,.26c-1.31-.41-1.68.23-2.65.29-.47,0-.75-.42-1.34-.46a12.66,12.66,0,0,0-1.66.26c-2.45.19-2.58-.47-4-.61-.3,0-.75.26-1.32.3-.79.05-1.54-.24-2-.16s-.71.5-1.32.53c-1.49.09-3.93-.29-5.67-.25-1.44,0-1,.22-2-.15-1.67-.62-3.44-.84-4.67-.05-.8-.29-1.06-.83-1.71-.89-1.95-.16-4.39,2.41-5.32.83.75-.23,2.63.25,2.31-.64-4.14.18-7.59,1-10.37.47-.18-.56,1.53,0,.95-.78-1.13-.42-3.6.27-4.4-.42-.35,1.56-2.56.08-3.31.71,1.13.82-2-.05-2.64.69.06-.56.57-1-.12-1.43a39.2,39.2,0,0,0-3.95,1.11c-.39.2.06.7-.94.82a15.92,15.92,0,0,0-2.05-.28c-1.2,0-2.72.82-3,.06,0-.62,1.27-.47,1.24-1.09A12.78,12.78,0,0,0,309.89.3c-.58.11-.64.85-1.24,1.09a30.72,30.72,0,0,1-3.32.57c-.06,0,.63-.74.6-.78-.66-.62-.84.46-1.32.37-.18,0-.27-.82-.44-.92s-1,0-1.37-.11c-1,0-1.22,1.7-1.89,1.2,0-.31.56-.29.61-.56a12.63,12.63,0,0,0-5.11-.06c-.37,1,1.51-.15,1.13.82-1.46.54-1.12-.57-2.4-.17-.63-.34.37-1-1.13-.83-.78,0-.28.74-.91.85-.32-.68-.9.11-1.34.17s-1.2-.13-1.71,0c-.06,0-.37.49-.6.57-.44.14-1.27.15-1.37-.07,0-.53,1.4-.28,2-.5-.92-1.44-3.43-.14-5.12,0-.82,0-1.59-.46-2.44-.41-.6,0-.76.29-1.31.41a17.65,17.65,0,0,0-3.27,1c-.57-1.18-3,.08-4.42.23-.25,0-1-.27-1.41-.26-.84,0-1.64.37-2.34.38-.27,0-1.05-.23-1.42-.26-2.19-.17-2.69.55-3.13-.22-.3-.5-2,.32-2.35.39-.63.12-.79-.15-1.38,0-.43.09-.41.35-1,.4s-.75-.29-1.42-.25a1,1,0,0,1-.62.37c-1.46.12-3.69.48-5.44.57-.36.19.63,1.16-1.16,1.21-1.12-.49.76-.58.45-1.31-1.81.65-2.89.18-3.77.25-.43,0-.4.4-1,.43s-.92-.24-1.43-.21a36.09,36.09,0,0,0-5.79.65c-1,.26-1.93,1-2.86,1.31-2.11.67-4.06.44-6.38,1.23l-.26-1.18c-1.3,0-1,.75-1.51,1.09-.7-1.41-1.93-.22-3.49.07h-1.06a7.36,7.36,0,0,0-3,.7c-1-.34.73-.83-.28-1.17a34.27,34.27,0,0,1-4,.93,11.87,11.87,0,0,1-1.94.72c-1,.16-2.23-.27-3.23-.13-.67.1-1.55.7-2.27.86-1.79.42-4.16.32-6.57.77-2,.38-4.18,1.12-6.06,1.39-1.65.23-3.4-.05-4.92.4-.53.15-1,.76-1.52,1-2.84,1.08-4.66.37-7,.89-.55.12-1.1.41-1.66.51a3.35,3.35,0,0,1-1.13-.15c-.66.19-1.2.89-1.85,1.07-.78-.11-1-.5-2-.4-.59.06-1.35.69-1.92.85-1.21.33-2.77.16-3.54.37-.34.08-.31.37-.58.45-.48.15-2.24.62-3,.81-1,.23-2.21.1-3.2.36-.83.21-1.7.68-2.31.81s-1-.1-1.48,0-1.06.66-1.24.68-1.07,0-1.48,0c-.09,0-.54,0-.74,0,0,0-.7-.29-.49-.33-.43.08-.76.53-1.57.8s-1.31.16-1.74.36c-.65.3-1.12,1-1.81,1.15-1.5.34-2.8-.25-3.79-.1-1.86.32-3.94,1.57-6.55,2.58-2.38.93-5.15,1.48-7.38,2.41-1.35.56-2.89,1.65-4.07,2.13-4.16,1.86-10.59,2.93-11.86,5.5.16-.33.4.83.39.88-.08.75-.36.75-.25,1.16,0,.21.54.45.81,1,.7,1.32-.16,1,1.43,1.47s1.29.22,3.45,0c1-.08,1.62.09,1.79-.26s.48,0,.41.08a18.8,18.8,0,0,1,1.91-.85c.49-.12,1.09,0,1.47-.12a4.06,4.06,0,0,1,1.18-.79c.79-.26,1.7-.12,2.51-.31.61-.14,1.36-.62,1.93-.76,1.57-.4,3.25-.24,4.55-.78.46-.18.46-.55,1.2-.73s1.92,0,3.25-.25c.83-.18,1.83-.89,2.89-1.15.72-.17,1.31,0,1.78-.18.86-.3,1.36-.9,1.84-1s1.1.34,1.63.39a10.68,10.68,0,0,1,3.14-1.44c.41-.12,1.13.08,1.46,0,.64-.15.62-.53,1.22-.68.78-.2.77.39,1.54.22.84-1.35,1.78-.85,2.92-1,.39-.06,1.37-.89,1.37-.23-.84.14-1.82.13-1.46,1a5.58,5.58,0,0,0,2.93-2.05c.4.67,1.43-.36,2.42-.34.8,0,.69.66,1.61.46,1.57-.35,2.91-2,4.2-1.48.31.51-1.51.39-.74,1,.83-.26.84-1,1.72-1.37a14,14,0,0,1,2.1-.17c.53-.11,1.07-.61,1.56-.73.08,0,.88.18,1.12.15.5-.05,1.18-.5,1.38-.17.06.5-1.15.59-1.08,1.09,1.7-.74,4.16-.92,4.56-1.41.24-.3.12-.16.58-.43,1.92-1.17,2.1-.16,4.05-.75.62-.19,1.12-.68,1.56-.73.86-.1,1.91.93,2.81-.11-.33.09-.53-.28-.14-.47.77,0,1.41.64,2.29.56,1.26-.14,2.26-1,3.53-1.26.87-.15,1.19.55,2.22.39.17,0,1.24-.54,1.57-.67s.82-.9,1.32-.35c.31.6-1.17.55-1.12,1.05,2.1-.19,4.81-1,6.07-.89.63-.53-.56-.46.14-.79,1-.43,3.65-.46,4-.58.16-.06.08-.36.59-.41s.84.23,1.43.11a35.86,35.86,0,0,1,3.92-1c.56,0,.37.34,1.11.23,1.51-.21,3.3-1.25,4.71-.6.07.31-.53.35-.55.62a9.72,9.72,0,0,0,5.74-.59c.3-.15.47-.82.83-.93s1.41-.11,2-.22c.8-.14,1.47-.58,2-.22.34.92-1.24,1-1.33,1.78,2-.36,1.59-1.12,2.36-1.77,1.5-.91,2.44.18,3.48.18s2.06-.67,3.06-.12a7.49,7.49,0,0,1-2.54.77c-1,.2-2.1.4-3,.66-.12-.36-.14-.83-.81-.56-.84-.27-.33.7-.83.94-.78.36-3.42,0-5.72.58-.88.21-1.25.59-1.91.69s-1.24-.13-1.74-.09a15.87,15.87,0,0,0-2.68.37c-.7.28-.57,1-1.47,1.08-.84.27-.47-.84-1.47-.39-.84,1.45-2.7.27-4.57,1.16-.06-.3.33-.43.15-.78a32.69,32.69,0,0,1-4.05,1.83c-1.23.35-1.07-.18-1.75,0a2.8,2.8,0,0,1-1.24.58c-.64,0-1.08-.42-1.82-.25,0,0-1.41.39-1.3.35-1.08.38-2.16,1.55-3.33,1.89-.21.06-.93-.15-1.42-.12a11.55,11.55,0,0,0-4.23,1.18c-.28-.39.71-1.3-.59-.82-1.54.29-.19,1-.7,1.22-1.3-.49-2.55.59-3.94,1-.5.14-.77-.18-1.43-.06.09,0-.34.35-.58.43-.44.15-.78,0-1,.07a20.12,20.12,0,0,1-2.19.93c-.36.06-.89-.22-1.11-.16-1.62.45-2.55,1.42-4.13,1.52-.64.05-1.12-.32-1.83-.18a26.43,26.43,0,0,0-5.39,2.05c-.32.13-.45-.09-.72,0s-.36.41-.88.57c-2,.63-5.44,1.65-7.12,2.24a2.91,2.91,0,0,1-1.2.67c-.56.1-.39-.33-1.12-.11s-1.27.94-2.08,1.24c-.36.13-1.1,0-1.77.11a14.7,14.7,0,0,0-2.37.84,14.16,14.16,0,0,1-2.08.82c-.5.12-.91-.14-1.44,0s-1.09.91-1.73,1.2c-1.18.54-1.4.09-1.75.18s-1.05.7-1.5.85l-1.35.27c-1.67.39-1.78.54-1.94-.26a16.54,16.54,0,0,1-6,3.4c-.37.11-.19,0-.41-.1-.79-.28-2.26.79-3.24,1.09-1.21.33-2.39-.26-3.51.5,0,.43.71.36.29.66-1.11.81-3,1-4.16,1.58-.57.28-1,1.18-1.58,1.49-.22.12-1.86.65-2.59.89-1.55.5-3.49,1.58-5,2.22-.49.21-1.28.09-1.76.26s-1,.74-1.44,1-1.19.3-1.64.54-.58.59-1.12.83-1.49.25-2,.48c-.38.15-.52.53-1.13.82s-1.37.42-2,.7c-.89.44-1.54,1.07-2.35,1.43s-2,.5-3,1c-1.48.69-2.68,1.8-4.19,2.35-.42.15-.52,0-1,.25s-.88.83-1.39,1c-.17.07-.83-.09-1.13.07-.88.46-1.67,1.77-2.37,2.13-1.25-.42-1.4.24-2.63.91-1.63.87-2.83,1.52-3.92,2.16-1.86,1.08-4.42,1.63-6.37,2.7-1.38.74-1.92,1.15-3,1.74-1.23.68-2.14,1.6-3.41,2.37-3.89,2.37-8,4.38-11.76,7.23.64.69,2.32-1,2.83,0-.61.56-2.32,2.08-3.22,2-1.16,0-.24-.84-.49-1.39-1.59.39-3,1.93-4.44,2.68-.42.22-1.07.14-1.41.38a3,3,0,0,1,0,.59c-1,1.27-2.85,1.89-3.72,2.53a45.33,45.33,0,0,1-4.86,3.32c-.61.33-1.22.13-2.13.58a4.21,4.21,0,0,1-1,1c-.71.39-1.34.27-1.71.58s-1.2,1.43-.83,1.82c1,.1,1.56-1.74,2.24-1A39.77,39.77,0,0,1,39,98.65c-.66.46-1.13,1.21-1.51,1.44s-1.37.26-1.81.47a18.49,18.49,0,0,0-3.87,2.92c-1.7,1.55-5,3.16-5.38,4.38a8.91,8.91,0,0,1-.51,1.58,3.78,3.78,0,0,1-1.49,1.33,10.86,10.86,0,0,0-1.52.77c-.78.54-1.2,1.38-1.87,1.85a1.55,1.55,0,0,0-.44-.13c-.21,0-.4.07-.3.44a1,1,0,0,1,.89-.12c-1.25.94-2.9,1.81-2.23.31-1.2.71-.53,2.1-1.25,2.66.06,0-2.38.65-2.12,0,.8-1,1.16-.53,1.78-1-1.05-.76-3,1.35-4.28,2.89-.43.52-.58,1.36-1,1.91-.58.81-1.19,1-1.29,1.55.45,1,1.93-1.81,2.41-1A15.61,15.61,0,0,0,10,124.13a7.74,7.74,0,0,1-3.15,2.55,2.53,2.53,0,0,0,.8-1.54C6.22,127,4,128.06,4.06,129.34c1.13-.22,1.37-2.32,2.35-1.87-.31.58-.68,1.19-1.07,1.88-.16.28-.52.7-.77,1.1s-.38.81-.1,1C6,130.67,6.41,129,6.94,128c1.39-.14,2.64-2,3.77-3.23.94-1.09,2-2,2.87-2.8.58-.59.15-.71.82-1.44s1-.36,1.77-1c1.41-1.18,2.43-2.56,3.88-3.74,2.3-1.94,4.14-3.26,6.46-5a40.5,40.5,0,0,0,4.39-3.33c.41-.4.63-1.07,1.08-1.42s1.39-.51,1.95-.86a16.6,16.6,0,0,0,2.74-2.08c.54-.55.5-1,1.09-1.43s1.25-.45,1.94-.85c1.87-1.06,3.6-3.08,4.85-3.29s.81-.21,1.55-.77c.52-.4.78-.22,1.28-.58,1-.74,2.24-1.82,3.27-2.52.56-.39,1.17-.49,1.55-.77s.47-.85.86-1.17,1-.37,1.56-.77c1.27-.94,2.69-2.49,3.43-2.91.44-.26,1.28-.15,1.81-.37,1.14-.44,1.78-1.18,2.71-1.5-.38.92.49.51,1,.25,1.66-.89,1.14-1.56,2.11-2.42.38-.34,1.3-.5,1.88-.88.39-.25.4-.77.91-1.12.34-.23,1.46-.63,2.17-1s2-1.32,2.63-1.62,1.11-.13,1.71-.48a33.62,33.62,0,0,0,3-2.38,20,20,0,0,1,2.22-1.63,5.6,5.6,0,0,0,.54.25c1.25.21,3.17-1.76,4.78-2.65,1.89-1.05,8.21-4.44,9.21-4.54C96,67.77,96.12,67,97,66.36c1.85-1.37,4.78-2.12,7.5-3.3,1.45-.63,3.06-1.28,4.37-1.91,1.14-.55,2.19-1.42,3.25-1.88.87-.37,1.79-.42,2.65-.77,1.47-.6,2.71-1.53,3.66-1.81.75-.22,1.5.29,2.16-.19.5-1.51,2.3-1.64,4.14-2.37.6-.23.87-.67,1.45-.9a34,34,0,0,0,3.2-1.16c.5-.28.63-.58,1.14-.77.31-.12,1.29,0,1.43-.11s-.18-.26.22-.36c.73-.18,1.51.28,2-.38.55-.43-.76-1.23.46-1.52.39-.13.56.06.81.17.52.22.08.23.81.16,1.3-.12,2.32-1.31,4-1.93.5-.19,1.41-.09,2.07-.3s.88-.61,1.49-.85c1.33-.52,3.22-.74,4.89-1.42.9-.37,1.58-.94,2.43-1.22.69-.22,1.35-.09,2.06-.29a46.48,46.48,0,0,0,6.94-2.67c.45-.26.07-.62.79-.79.81-.36.57.79,1.52.23.95-.27.79-.85,1.74-1.12,1.81.65,3.13-.39,4.7-.89,2.3-.73,5.62-2,7.63-2.67.54-.19,1.34-.17,2-.44a13.81,13.81,0,0,1,1.52-.74c1-.21,2.07,0,3.12-.21,1.66-.32,3.45-1.2,5.45-1.68,1-.24,1.83-.11,2.71-.34s1.78-.76,2.82-1.12a21.48,21.48,0,0,1,2.32-.46c.63-.24.92-.81,1.47-1,1.72-.47,3.25-.08,4.39-.49.4-.15,1-.81,1.49-.9.86-.18,1.77.09,2.78,0a49.21,49.21,0,0,0,6.26-1.18c.37-.09,1.12-.6,1.56-.67.59-.1,1.11.19,1.74,0,1.66-.41,3.18-1.31,5.11-1.58.51-.08,1.15,0,1.69-.15.82-.2,1.61-.85,2.49-1.07A14.58,14.58,0,0,1,228,23a3.37,3.37,0,0,1,2.22.72c-1.82.4-3.89.82-5.19,1.2-4.87,1.35-11.38,2.56-15.51,4-.42.15-.83.68-1.17.81s-.3-.15-.39-.14c-.29,0-.23.31-.25.31-1.68.55-2.36.95-2.65,1.71-.82.72-2.34.57-2.82,1,.52,1,.47,1.7,1.42,2.6-1.81.38-3-.1-3.37,1.44-.43-.24-.68.28-1,.3-.72,0-.68-.39-1.47-.3-.6.06-.64.5-1.2.62-.76.16-1.87-.48-2.75.09-.42.93,1.48.33.6.82-1.43-.46-2.43.25-3.31.52-.42.13-.51-.12-1,.06s-.67.52-1.2.63c-1.46.29-2.37-.33-3.46.06-.61.22-1.14,1.11-2,1.37-.52.16-1.22-.17-1.73,0-.36.54-.58.89-1.19.63-.9-.39-1.91.46-2.9.76-.81.24-4.23.95-4.56,1.09-.6.25-.79.79-1.41,1-.12,0-.58-.29-1.1-.12s-.46.5-1.18.67a15.17,15.17,0,0,0-2.36.32c-.54.19-.94.77-1.41,1a7,7,0,0,1-4,.65c-.87.48-1.84,1.91-2.41,1.17-.19-.26.53-.46.45-.7-1.35.47-2.7.93-2.54,1.78-.27-.43-.95-.27-1.5-.18a12.4,12.4,0,0,0-2.57.75c-.59.32-.68.81-1.38,1.07s-1.62.21-2.66.53c-1.93.6-4,1.81-5.59,2.22a17.07,17.07,0,0,0-1.74.17c-.4.14-.33.41-.84.59s-.54-.09-1,.19-.64.83-1,1-1.37-.34-1.72.24c.06,1.05,1.87-.87,1.7.56-2.27,1.21-3.61.65-4.89,2.17-.88,0,0-1-.69-.75-.11.55-1.59,1.24-2.56,1.66a38.25,38.25,0,0,1-4.48,1.47c-.34-.6,2.12-.63,1.23-1.34-1.42.12-2.55,1.31-4,1.77-1,.31-2.2-.39-2.65.67-.69.65,1,.18,1.32.45-.06.7-1.45.76-2.31,1.38-.51.36-.39.81-1,1a5.4,5.4,0,0,0-1.21-.2c-.71.09-1.44,1.06-1.41.16,2-.77,4-.9,3.5-2.81-3.76,2.52-8.59,3.7-13.07,6.22-.39,1,1.63.33,1.88,1.47l-2.11,1.05c-.21-.43.69-.68.17-1.16a22.81,22.81,0,0,1-4,2.1c-1.31.61-2.62,1.15-3.9,1.68-2.54,1.07-4.91,2.15-6.67,4-.14-.77-1,0-1.17-.72.49-.34,1.59-.61.95-1.08a12.36,12.36,0,0,0-3.67,1.75A12.69,12.69,0,0,0,86.47,79c-.4.35-1,.5-1.48.82-.13.1-.41.71-.64.91s-.85.38-1.17.67c-.65.55-.48.85-.91,1.11A10.09,10.09,0,0,1,79,83.66c-.68.67,1,.41-.09,1.17-.73-.27-1-.07-1.8.27-.39.16-.58-.14-.83-.06-.45.15-.51.6-.74.74-.75.46-2.44.67-3,1-.74.44-1.59,1.48-2.33,2-.28.2-.47,0-.71.16s-.19.5-.73.73-1,.09-1.41.3,0,.55-.32.76c0,0-1.39-.27-1.7.48-.05.73,1.38.32.65,1-1.24.61-2.37.69-3.2,1.28s-1.09,1.37-1.69,1.73c-.14.08-.29-.72-.68-.41.06-.05.24,1.47-.44,1.17-.73-.08-.15-.27-.53-.8-1.67.61-2.32,1.57-3.64,2.48-2.31,1.59-5.44,2.41-5.88,4,.25-.1.56-.37.7-.18-1.19.18-1.57,1.33-2.38,1.91s-1.21.23-1.93.8-.31.93-1.07,1.41c-.33-.32,0-.66-.29-1-.76.58-.91,1.18-1.62,1.82-.4.37-1,.42-1.49.83-1.81,1.41-3.6,3.49-5.4,4.68-.78.51-1.71.73-2.46,1.25a2.22,2.22,0,0,1,0,.59,5.72,5.72,0,0,1-.81.61c-.69.54-1.93.9-2.73,1.47-.56.37-1.05,1.15-1.79,1.73s-1.74,1-2.38,1.64c-.4.36-.73,1.16-1.09,1.55s-.49.09-.71.29c-.77.69-1.57,1.53-2.4,2.4l-2.53,2.64c-1.28,1.3-3,2.36-4.27,3.81-1,1.12-1.58,2.29-2.62,3.42-.53.56-1.28,1-1.77,1.59s-.54,1.18-1,1.82c-2.1,3-5.62,6.59-7.74,10.28-.33.54-.41,1.39-.75,2.09-.51,1-2.31,3-1.14,3.38,1.59-2,2.11-4,3.64-6.35,2.06-3.4,5.13-6.69,6.54-8.93.35-.56.26-1.06.68-1.53.27-.31,1.18-.61,1.41-.83a29.35,29.35,0,0,0,1.95-2.46c.38-.31.84-.15,1.15-.48a3.48,3.48,0,0,1-.08-.61c.14-.26.61-.58.81-.82,1.4-1.77,3.35-3.62,4.29-3.15-.81,1.27-2.64,2.41-3.51,3.39s-1.44,2-2.33,3.06c-.25.3-.48.17-.69.4a69.89,69.89,0,0,0-6,7.36c-.92,1.39-1.86,2.3-2.69,3.61-.71,1.14-1.18,2.47-1.94,3.74s-1.51,2.33-2,3.32A17.56,17.56,0,0,0,1,154.35c-.3.92-1.57,2.54-.53,2.68.62-1.58,1.72-3.09,2.42-4.58.34-.78.26-1.32.66-2.07.25-.46.64-.62,1.09-1.31.85-1.29,1.41-2.87,2.4-4.35,3-4.7,7.76-8.75,9.89-11.63.37-.5.29-1,.72-1.41s1.6-.75,2.37-1.33a22.48,22.48,0,0,0,2-2.21,98.21,98.21,0,0,1,9.68-8c.53-.4.45-.7.95-1.06a43.94,43.94,0,0,0,4.17-2.86,36.35,36.35,0,0,1,3-2.23c.49-.38.75-.94,1.19-1.2s.92-.09,1.36-.43.36-.79.79-1.2a2.23,2.23,0,0,0,1-.41c.33-.29.2-.5.66-.8s1.57-.42,2.31-.84c1-.57,2.15-1.85,3.5-2.6.45-.25,1.3-.38,1.67-.55a9.82,9.82,0,0,0,1.93-1.32c.32-.29,1.26-.35,1.8-.94.36-.39.31-1,.7-1.35s1-.35,1.52-.74c.76-.55,1.34-1.44,2.23-2.1,1.29-1,2.88-1.46,4.42-2.43.56-.36,1-1,1.53-1.33s1.35-.41,2-.7c2.19-1.11,4.31-2.86,6.27-3.85a16.66,16.66,0,0,1,1.68-.47,27.73,27.73,0,0,0,2.56-1.57,16.51,16.51,0,0,0,1.55-.67c.52-.35.83-.83,1.3-1.08a24.4,24.4,0,0,1,3.5-1.3c1.69-.58,1.51-1.3,2.65-2.08.25-.15,1.21-.41,1.87-.76s1.5-.76,2-1.13.54-.77.93-1.06c1.84-1.37,2.76-.81,3.85-1.31.69-.31,1.16-1.17,1.82-1.55s1.41-.28,2-.54.85-.72,1.34-1,.68,0,1.28-.43c.45-.29,1.07-.68,1.72-1a17.9,17.9,0,0,1,1.83-.82c.42-.16.94,0,1.41-.17s1-.56,1.49-.74c.67-.23,1.24-.1,1.71-.31-.19.09.65-.55.78-.66a8.09,8.09,0,0,1,2.68-1.32c.1,0,.12.41.21.43.71.11,2.79-1.64,2.58-1.55.57-.23,1.2,0,1.69-.3a10.16,10.16,0,0,1,.69-.88c.27-.19.47.05.7-.08s.14-.32.49-.51a16,16,0,0,1,2.82-1.13,11.42,11.42,0,0,0,2.18-.7c.39-.2.91-.95,1.32-1.11.15-.06.58.24,1.11,0s.56-.6,1.11-.76c.35-.1,1,0,1.41-.1,1.82-.37,2.29-1.25,3.54-1.83.38-.18,1.13.05,1.7-.23,1.32-.65.45-1,1.52-.67.89.26,3-1.32,4.93-1.93,1.21-.39,2.54-.21,3.34-.58s1.07-.93,1.66-1.17c1.76-.7,4.47-1.67,6.55-2.33a13.54,13.54,0,0,1,1.4,0,14.17,14.17,0,0,0,3.37-1.33c.42-.29.51-1,1-1.16.71-.28,1.66,0,2.71-.3s2.1-.84,2.79-1c.44-.1.76.15,1.1.12,1.57-.12,2.58-.91,3.73-1.31,1.68-.59,3.26-.45,4.28-.74,1.35-.37,2.6-1.17,4-1.64.65-.22,1.61,0,2.33-.3a4.29,4.29,0,0,1,1.17-.67c.61-.16.8.19,1.08.13s1.06-.66,1.81-.81c1-.19,1.63-.52,2.51-.77,1.21-.35,5-1,5.79-1.29.15,0,.06-.38.56-.42.31,0,.45.28,1.08.17a13.84,13.84,0,0,1,2.57-.54c1.43.17,3.76.12,4.46-1.13,1.37.8,2.08-.14,3.21-.67,1.54-.72,1.68-.5,3.23-.62.91-.07,1.88-.37,2.27-.36.09,0,.05.43.13.46,1,.38,2.71-1.2,3.35-1.4a16.94,16.94,0,0,1,2,0c.6-.09.64-.44,1.2-.57,1.74-.43,4.2-.66,6.12-1.15.59-.15,1-.54,1.53-.61s.78.23,1.38.17,1.06-.29,1.59-.37c.54.65.06.64.6,1.1.49,0,1.58-.66,1.65-.14,0,1-1.55.76-2.43,1.06A32.82,32.82,0,0,1,223.93,41c-.7.15-1.23-.32-2.07-.19-1.91.29-2.06,1-3,1.31-.45.16-1.55-.08-1.88.51.44-.1,1.46.57.87.76-1.32.88-2.15-.3-3.07-.17-.34,0-.48.37-.57.4-.66.21-1.4-.06-1.44.88,1-.4,2-.33,1.44.36-1.37.23-1.95-.69-3.2-.63-.94,0-1.65.72-2.77,1a7.87,7.87,0,0,0-1,0c-.66.08-1.73.32-2.75.5A7.15,7.15,0,0,1,202,46c.48.9-.52,1.35-.91,1.54a8.36,8.36,0,0,1-1.93.34c-.1,0,0-.43-.14-.46s-.51.24-.62.19S198,47,197.89,47a4.35,4.35,0,0,0-2.18.67,3,3,0,0,1,.18,1.71c-1.2.43-1.21-.41-.6-.83-1.46-.05-1.16,1-1.34,1.17-.52.37-1.11,1.06-1.93.35.57-.21,1-.47,1.1-.84-1.07-.34-2,.74-3.11.95-.71.14-1.09-.12-1.71,0-.42.1-.14.56-.47.65s-.93-.12-1.4-.07a13.76,13.76,0,0,0-2.24.4A16.27,16.27,0,0,0,182,52c-.48.22-.85,1-1.31,1.22-.74.41-3.79,1.6-3.91,1.63-.8.17-2.14-.38-2.78-.05-.85.55-.9,1.34-1.76,1.89-.61-.6-1.63.39-1.92.42-.09,0-.58-.22-.78-.24-1.26-.08-2.06.88-3.3,1.42-.62,0-.73-.79-1.78-.13-.12.69,1.75.34.33.9s0-1.36-1.41-1c-1.78.68-.26,1.44-.41,1.71-.78.7-1.2-.3-1.85-.3-.45,0-1.06.54-1.52.6s-.44-.26-1.08-.08a13.63,13.63,0,0,0-1.44.82,22.65,22.65,0,0,1-2.12.84c-.86.31-3.6.88-4.13,1.12-1.38.63-2.74,2.36-4.59,2.59-.69-.24-.09-.29-.37-.89-1.5.63.07.62-.83,1.39-1.43,1.26-4,.92-5.08,2.26-.25-.39.13-.64-.08-1-1.34-.08-2.13,1.05-3.2,1.68-.9.53-2.24,1.3-2.59,1.42-.51.16-.91-.14-1.39.09s-.8.83-1.3,1.1c-.82.43-2.08.63-3.09,1.11-.43.2-.42.49-1.09.75-.9.32-2.1.56-3.16,1-.73.31-1.46.82-2,1s-1.3.07-1.68.3-.64,1.19-1.15,1.37c-.4-.82-3.4.57-4.24,1-.4.22-.77,1.11-1.15,1.38s-.93.12-1.57.51a42.66,42.66,0,0,0-4.18,2.61c.38-.45.55-1.16-.45-.85-1.09.94,0,.65-.13,1.17-1.11.56-1.58,1.4-2.29,1.27-.53-.11-.06-.32-.8-.11-.34.09-.38.47-.46.53-.59.38-1.86.3-1.61,1.16-.22-.74-1-.2-1.61-.21a4.64,4.64,0,0,1-3.27,2.9s-.18-.38-.23-.42c-.56-.48-1.63.95-2.3,1.27-.43.21-.65,0-1.26.43s-1.13,1.19-1.77,1.52-1.34.29-2,.54A25.87,25.87,0,0,0,87,93.13c-1.58,1-2.84,2.63-4.39,3.54-1.83,1.08-3.84,2.36-5.31,3.26-2.47,1.54-5.3,2.53-7.47,4.76-.71.46-.9-.52-1.61-.06,0,1.68-1.81,2.12-3.14,3-1.14.76-1.74,1.28-2.71,1.85-1.25.74-2.78,2.21-3.39,2.6-.3.2-.85.26-.95.36-.64.59-.82,1.4-1.49,1.88-1.85,1.36-4.34,2.12-5.67,3.92a22.08,22.08,0,0,1,2.26-.81c.12,0,.8,0,.8,0,.61-.33.84-2.11,1.84-1.38-1.25.44-1.12,1.53-1.93,2.35-.42.42-.74.26-1.19.6-.63.48-.89,1-1.42,1.37a17.43,17.43,0,0,0-1.71,1,11.24,11.24,0,0,0-1,1.37c-.25.29-1.73.88-1,1.37a40.67,40.67,0,0,0,4.3-3c2.73-1.8,5-4.14,7.62-6.16.93-.75,2.41-2,2.82-2.22.8-.48,1.82-.48,2.57-.88,1.76-.93,3.35-2.88,5.12-4.07.55-.36,1-.31,1.48-.71s.77-1.16,1.36-1.51c.38-.22,1.29-.12,1.75-.29a28.85,28.85,0,0,0,2.37-1.74c1.35-.83,2.5-1.15,3.46-1.84.54-.39.71-.73,1.26-1.06s1.55-.42,2.19-.78,1.36-1.1,2.1-1.57,1.79-1,2.5-1.53a21.92,21.92,0,0,1,2.92-1.72c1-.5,2.08-1,3.1-1.52.84-.47,1.31-1.06,2.16-1.47,1.26-.62,2.66-1,3.94-1.63.81-.4,1.25-1,2.16-1.47,1.14-.63,2.65-1.25,3.81-1.83,1.42-.69,2.71-1.46,4-2.11l3.78-1.93c1.15-.58,2.54-.8,3.71-1.31.57-.24.54-.53,1.06-.79.8-.39,1.93-.78,2.72-1.09a22.09,22.09,0,0,0,2.62-1.29c.68-.34,1.45-.4,2.14-.8.53-.29.88-.73,1.35-.93s.77.07,1.39-.11a1.92,1.92,0,0,1,.79-.61,12.18,12.18,0,0,0,1.78-.79,8.25,8.25,0,0,0,.89-.4c.34-.1.87.13,1.09,0,.57-.23,1.28-.88,2-1.14a14.65,14.65,0,0,0,1.58-.44,12,12,0,0,0,3.47-2.59c1.85.63,3.2-.65,5.62-1.71a24.27,24.27,0,0,1,3.4-1.11c.57-.13,1,.13,1.39,0,.2-.09.09-.62.72-.81s.72.25,1.69-.15c2.21-.9,4.34-2.55,6.92-2.74-.25,1.48.86,1.19,1.16,2.12,1.36-.87,3.33-1.25,3.94-.52-2.76,1.37-5.85,1.69-8.16,3-.55.3-.83.78-1.32,1s-.69-.09-1.29.25c-.35.2-.36.68-.71.8a2.82,2.82,0,0,0-.78-.21c-2.69.42-2.06,2.36-3.63,3-.5-.43.85-1.66-.47-1.1.47,1.56-.8,0-.69,0-.66.21-1.21,1-1.87,1.36-1.75,1.06-4.44,2.09-6.36,3.08s-3.29,2.55-5.28,2.35c.29-1.35,3.3-.93,2.73-2.53-.72.76-1.7.68-2.06.91s-.43.68-1,1c-.81.43-2.28.23-2.55,1.4.61-.16,1.3-.49,1.48.13-1,1.14-2.29.92-3.52,1.57-.41.23-.79.86-1.23,1.15a23.29,23.29,0,0,1-3.26,1.35c-.3.13-.23.38-.47.5-.57.28-1,.19-1.44.71a11.42,11.42,0,0,1-3.44,1.71s-.41-.52-.61-.5c-.38,0-1.13.62-1,.79.37-.15.72-.28.79.14-1.32,1.42-4,2.18-5.34,2.92-.41.23-.78.86-1.21,1.14s-.53,0-1,.25c-2.76,1.81-6.44,3.51-9.41,5.47-.38.26-.28.62-.6.89a1.79,1.79,0,0,0-1,.25c-.16.11-1.24,1.49-1.24.41-1.25.47,0,1.29-1.21,1.76-1.13-.13-2.53,1.05-3.85,1.64-.48.2-.93-.21-1.33.25.42,1.17-1.6,1.34-2.48,2.09-.46.39-.76,1.31-1.26,1.62-.33.2-1.08.22-1.61.42a10.06,10.06,0,0,0-1.76.8c-.62.43-1,1.22-1.66,1.58a12.46,12.46,0,0,1-1.88.6c-.5.68.87.31.24,1-.83.31-1.54,1.18-2.72,1.66-.62.26-1,.05-1.62.44-.39.24-.76.77-1.19,1.1a36.78,36.78,0,0,1-4.74,3.23c-.77.41-1.48.44-2.12.86-.39.27-.7,1-1,1.3s-1,.32-1.45.7-.62,1-1,1.29-1,.37-1.45.7c-.13.11-.18.45-.66.74s-.79.19-1.19.52-.6,1-1,1.29-1.08.22-1.55.56-.48,1-.74,1.16-1,.45-1.41.77c-2.45,1.91-5.59,4.77-8.35,6.92-.29.22-1.13.49-1.42.77-.52.5-.18.73-.72,1.14s-.7.25-1.17.58-.7.87-.85,1c-.5.31-.78,0-1.28.42s-.35.85-.68,1.16-1.66,1.06-2.08,1.43c-2,1.72-5,4.32-7.73,7.05a46.19,46.19,0,0,0-6.41,7.71c-.32.47-.42,1.31-.75,1.73A3.27,3.27,0,0,0,27,157c-.88.26-.87,1.18-1.28,1.69s-1.15,1.7-1.52,2.24a20.66,20.66,0,0,0-1.62,2.17c-.15.28,0,.88-.19,1.26s-.46.22-.65.66a42.92,42.92,0,0,0-3.53,9.55c-.12.85-.26,1.82-.31,2.62a16.24,16.24,0,0,0,.4,2.4c.05,1.45-.16,2.71.28,3.45.05.08.39,0,.48,0s.11.54.23.57c.33.11.88-.27.95-.22.62.35.55,1.32,1.18,1.11a2.75,2.75,0,0,0,1.21-1.75c.1-.48-.42-1.07-.42-1.59s.29-.56.36-1-.19-.4-.15-.8.32-.53.37-1c.09-.63-.13-1.45,0-2.13.05-.26.09-.55.17-.83l.3-.84a14.21,14.21,0,0,0,.52-1.73c.25-.86.21-1.82.52-2.58s.62-1.18.91-1.91c.19-.46.4-.93.64-1.41l.9-1.47c.32-.49.62-1,1-1.5l1.12-1.49c1.47-2,3-3.84,4-5.41.2-.35.12-.87.38-1.2A12,12,0,0,1,35,154.12a24.52,24.52,0,0,0,1.87-1.61c.32-.33.43-1,.71-1.39s.93-.61,1.22-.88l2.4-2.26c1.39-1.24,2.42-3,3.87-4.35.31-.29.95-.51,1.32-.81a30.75,30.75,0,0,1,3.62-2.9c.51-.27,1.05-.25,1.55-.57a15.39,15.39,0,0,0,1.86-1.71c1.2-.81,2-.38,2.12-1.9.91-.64,1.94-.47,2.84-.94.16-.09.62-.85,1.1-1.14a2.58,2.58,0,0,1,1.29-.38l-5.21,4.55a47.72,47.72,0,0,0-4.11,3.4c-.33.39-.3.91-.55,1.32s-.46.61-.56.76c-.62,1.05-1.4.68-2,1.35s-.83,1.72-1.45,2.48c-.44.54-1.24.91-1.79,1.56-.21.24-.27.8-.56,1.14s-.88.61-1.09,1a13,13,0,0,0-.94,3.2c.65.57.93-.32,1.28.11.13.14-.82,1,.05,1.27,1.5-.44,2-1.47,3.06-2.52.74-.76,1.72-1.46,2.36-2.1.3-.29.08-.64.35-.92s.62-.2,1-.57c.67-.61,1.24-1.57,2-2.25.37-.33.77-.63,1.16-.92a14.1,14.1,0,0,0,1.22-.94c.45-.41.71-1.05,1.19-1.5,1.28-1.21,3.09-2,4.45-3.36.43-.42.71-1.07,1.19-1.5,1-.88,2.22-1.56,3.22-2.43.55-.49.85-1.16,1.44-1.7,1.67-1.6,4-2.69,5.83-4.13s4.51-3.76,6-5c.44-.35.94-.34,1.16-.5s.31-.81.77-1.1.53,0,.9-.33.38-.83.77-1.1a1.93,1.93,0,0,0,.9-.33c.45-.37,1-.75,1.51-1.12l1.74-1.06a26.09,26.09,0,0,0,3.22-2.17c.45-.37.6-.92,1.08-1.22.67-.42,1.62-.5,2.38-.9s1.21-1,2-1.51c.36-.24.65,0,1.19-.45.74-.55,1.06-.59,1.86-1.14.38-.26.34-.52.94-.86a17.92,17.92,0,0,0,2-.94c.47-.31.5-1,1-1.38.23-.16.58-.09.94-.24,2.84-1.18,7.21-4.09,9.74-5.66.34-.21.54.09.94-.24,0,0,0-.5,0-.57.82-.94,2.23-.7,3-1.09s1-1.08,1.71-1.46c1.1-.68,2.38-.92,3.76-1.6s2.88-2,4.27-2.65c.44-.22,1.08-.24,1.52-.49,1.72-.95,3.43-2.19,5.12-3.08a6.84,6.84,0,0,1,1.23-.34c.4-.19.36-.56,1-.77.33-.09.86.13,1.06,0,.44-.17.5-.47.76-.6.53-.27.74,0,1.25-.29,1.84-.91,3.82-2.25,5.64-2.76.34-.1,1,.12,1.34-.07,0,0,.57-.76.66-.82.39-.26,1.11-.33,1.44-.64s.34-1.31,1-1.52c2.06.6,4.57-1.42,7.21-2.3,1.07-.37,2.28-.44,3.4-.82.44-.16.86-.62,1.37-.8s.77,0,1.26-.24c.74-.35,1.35-1,2.15-1.37,1.3-.58,2.73-.82,4.18-1.4a29.47,29.47,0,0,1,3.13-1.49c.57-.15,1,.11,1.64-.1.33-.11.94-.78,1.32-1,1.89-.94,4.86-1.22,6-1.85.29-.16.18-.59.43-.66s.95.08,1.35,0a14.59,14.59,0,0,0,3.85-1.36c.63-.23,1.38-.24,2.16-.5a11.68,11.68,0,0,1,2.07-.73c.2,0,.4.74.6.81s1-.26,1.27-.15c.12,0,0,.41.15.45a8.89,8.89,0,0,0,2.46.5c.62,0,1.42.24,1.72.22s.82-.37,1.19-.37c.76,0,1,.29,1.71.23.49,0,1-.4,1.49-.46s.86.18,1.33.09a4.91,4.91,0,0,1,2.23-.18,4.71,4.71,0,0,1,1,.18c.57.23.27.92.71,1.29a6.53,6.53,0,0,0,2.49.74c.44,0,.4-.41,1.4-.69.44-.12.62.12,1.25-.13s1.2-.79,2-1.06a40.35,40.35,0,0,1,6.89-1.85c.41-.07.71.23,1,.22.54,0,1.12-.41,1.8-.48s1.16.13,1.61.06c.66-.11,1.23-.42,1.8-.49s1.26.1,1.91,0c1.29-.22,2.34-.76,3.59-1s2.37.1,3.49-.06c.63-.1,1.34-.39,1.81-.42.64,0,1.08.19,1.62.12,1.43-.22,2.67-.73,3.91-.91.57-.08,1.11.17,1.61.12.91-.09,2.65-.37,2.76-.4.27-.06.34-.35.55-.37.54-.06,1.09.14,1.61.12,1.49-.08,2.26-.62,3.32-.72.65-.06,1.09.27,1.61.18.83-.16,1.68-1.44,2.43-.48-.65,1.42-3,1.09-4.75,1.42-1.06.19-1.87.77-3,.91a13,13,0,0,0-1.55.12c-1.29.36-2.9,1.47-4,1.67-.61.11-1.23-.2-1.91,0-2,.46-4,1.47-5.89,1.85-1.15.24-2.35,0-3.41.31-.24.07-.83.69-1.07.78a15.48,15.48,0,0,1-3.55,1c-.32,0-1-.24-1.31-.14s-.4.78-.71.94c.18-.1-.32-.16-.36-.16-1.12,0-1.79.93-2.25,1.11-2.95,1.12-6.43,1.69-9.77,2.65a39.84,39.84,0,0,1-4,1.49,12.82,12.82,0,0,0-1.53.23c-1,.31-1.73,1-2.78,1.36-.43.15-1.11.1-1.54.22-1,.27-2,.83-3.14,1.22-.55.19-.73,0-1.25.13a4,4,0,0,1-1.09.59c-.5.13-1.08.05-1.54.22-1.06.37-1.78,1.14-2.74,1.44a20.21,20.21,0,0,1-2.17.25,47.19,47.19,0,0,0-5.56,1.7c-.55.17-.55.47-1.08.63-1.47.45-3,.4-4.2,1-.47.23-.83.8-1.27,1s-1.19-.07-1.61,0-1,.7-1.63.88-1.42.14-2.16.33c-3,.81-5.32,2.26-8,2.93-.7.17-1.79.58-2.64.79-.49.12-1.12,0-1.61.12s-.75.36-1.14.45-1.14,0-1.6.11c-2.1.54-4.67,1.28-6.54,1.84a10.39,10.39,0,0,0-4.84,2.68c.65,1.64,2.07,2,1.85,3.38a12.19,12.19,0,0,1-3,.79c-.5-.59-.39-.33-.5-1.09-1.58.26-3.53-.32-5.33.82-.34.22-.36.57-.62.84s-.77.42-1,.76c-.42.67.16,1.27.08,1.56-.39,1.51-1.83,1.72-3.21,2.41a12.5,12.5,0,0,0-1.8,1.15,10.83,10.83,0,0,0-.14,1.19l-.08,1.07a3,3,0,0,0,.86,1.72c.15.26-.17.44,0,.77.33.5,1,.81.75,1.51,1.13-.23,2.34.42,3.68.05.36-.1,1.08-.85,2-1.28a5,5,0,0,0,2-1.27,6.86,6.86,0,0,1,1.13-1.1c.77-.51,1.69-.67,2.16-1,.66-.49.88-1.33,1.51-1.72.16-.1,1.05-.17,1.47-.39a15.46,15.46,0,0,1,2.46-1.09c1.57-.55,2.82-1.53,4-2a14.91,14.91,0,0,0,1.73-.51c.59-.34.95-.93,1.46-1.17a4.08,4.08,0,0,1,1.82-.29c.53-.2.82-.77,1.47-1.16a26.36,26.36,0,0,1,3.63-1.44c.39-.18.82-.73,1.5-1.1l.81-.27a5.5,5.5,0,0,0,1.15-.51c.38-.28.45-.87.85-1.11s1-.1,1.48-.33C172,98,172.35,97.2,173.2,97s1,.74,2,.23c.76-.61-.26-.55.21-1.12.61-.22,1,0,1.57-.11.34-.08.32-.4.76-.56s.51.15.92-.1.44-.67,1-.85,1.22,0,1.59,0c2-.41,2.75-1.42,3.82-1.85s1.56,0,1.88-.15c.62-.18.92-.81,1.55-1s1.47,0,2.15-.24c.41-.13,2.3-1,2.77-1.23.62-.33,1-.9,1.56-1.06,0,0,.84.16,1,.16,2.17,0,4-1.32,6.36-2a22.93,22.93,0,0,0,3-.66c.58-.25,1-.8,1.6-1,2-.64,4.43-.45,6.79-1.6.58-.28.74-.73,1.31-.9.33-.1.75.26,1.31.14.41-.08,1.09-.56,1.4-.62,1-.2,1.94-.53,2.93-.79a20.85,20.85,0,0,0,4.4-1.18c-.05-.64-.07-1.06,1.51-1.4.66.3.59,0,.54.85,2.7-.34,2.6-1.89,4.69-2.5.52.37,1.66,1.46,2.59.33a1.53,1.53,0,0,1-1.3-.19c1.52-1.29,2.91-.09,4.08,0,1.15-1.26,3.4-.69,5-1.4.37-.17.65-.62,1.08-.74,1.57-.46,3.26-.39,5.09-.94a25.43,25.43,0,0,1,2.67-.62c.57-.11.6-.41,1.14-.51.37,0,.49.23.95.06.79-.29,1.18-.91,1.94-1.11a13.39,13.39,0,0,1,1.55-.06c.95-.12,1.73-.58,2.65-.76,1.34-.28,3.06-.31,3.64-.47.37-.11.69-.62,1.11-.71.65-.15,1.37,0,2.14-.18.41-.1,1-.44,1.45-.53a22.2,22.2,0,0,0,2.74-.29c1.15-.37,2-.25,3-.52.57-.13.87-.52,1.43-.71,2.49-.85,5.32-.48,7.56-1.23.36-.12.69-.57,1.13-.67s1.36,0,1.85-.06c1.56-.28,3-.94,4.47-1.21.51-.1,1,.08,1.55,0s.93-.37,1.49-.44c.89-.11,1.88,0,2.77-.11,1.18-.19,3.33-.89,5.11-1.15.76-.12,1.58.11,1.86,0,.68-.27.37-.77,1.13-.88.43-.06,1,.26,1.58.28a14.49,14.49,0,0,0,3.84-.42c1.22-.25,2.48-.53,4.07-.73s3,0,4.61-.22c2.85-.34,6.66-.58,7.94-1,.45-.15.62-1,1.16-.83-.11.47.44.6,1,.62a6.73,6.73,0,0,1,1.22-.11c1.06-.19,1.22-.8,2.1-.87.7,0,1.41.58,2.21.57.37,0,1.49-.26,2.13-.38a5.37,5.37,0,0,1,1.21-.33c.55,0,.69.38,1.27.4s1.53-.29,2.44-.41c3.64-.47,8.38-.37,12.3-1,.58-.09,1.22-.49,1.84-.55.32,0,.52.17.94.2,2.54.18,4-.83,5.86-.48.49.09.77.41,1.26.43a18.75,18.75,0,0,0,2.77-.36,1.78,1.78,0,0,0,.94.2,18.74,18.74,0,0,1,2.15-.55c.87,0,2.07.28,2.8.2,1.35-.14,2.39-1.17,3.71-.77.1.55-.89.28-.92.73,1.58-.21,2.26.3,3.72.18.43-.15,0-.92.61-1,1.66-.29,3,.23,4.66.17,1.13,0,3.06-.62,4-.54.66.06,1.39.72,2.18.74.51,0,1-.39,1.55-.47a45.51,45.51,0,0,1,5-.19c.56.13.84,1,1.55,1,.05-.28,0-.68.32-.72,1.91,1,5.68.62,8.38,1,1.11-.19-.44-1.11,1.26-.94.65.09-.46.63.29,1C408.61,56.74,409.38,57.51,410.39,57.54ZM284.81,80.78c-.24.91-1.67,1.15-2,.57S283.76,80,284.81,80.78Zm5.94-.73c-.29-.9,1.76-1.59,2.56-1.11C293.08,80.13,291.61,79.42,290.75,80.05Zm25.66-5.15-3,.3c-.38-.48,1.71-.94,2-.93C316,74.29,316.55,74.49,316.41,74.9Zm64.27-8.43a3.26,3.26,0,0,1-1.84-.21C378.72,65.63,381.24,65.34,380.68,66.47ZM430.6,65l-1.54-.09C428.62,64.16,431.11,64.3,430.6,65Zm-9.83-1.85c.63.16,2.16-.32,1.84.53C421.84,63.86,420.81,64.05,420.77,63.16Zm-21.63-.52a1.46,1.46,0,0,1,2.17-.94C401,62.37,400.42,62.77,399.14,62.64Zm64.39-.81-2.18-.16,0-.47,2.17.16Zm-9.27-1.64.05-.72a2.54,2.54,0,0,1,1.54.36A1.77,1.77,0,0,1,454.26,60.19Zm1.66-1.32c.64-1.24,3.85-.66,5.42-1,0,.44-.43.48-.39.94-.17.56,1.43,0,.88.78A17.57,17.57,0,0,1,455.92,58.87Zm12.61-.47c.2-.32.93,0,1.56.15s1.86-.11,1.52.62C470.82,59.26,468.27,59.6,468.53,58.4ZM436.7,55.48c-.26-.88,1.37-.35,1.57-.16C438.4,55.8,436.8,56,436.7,55.48ZM258.94,65.41c-.12-1,1.64-1.25,2.54-1.47.24-.06.35.2.65.11s.5-.34.86-.41a9.41,9.41,0,0,0,3-.6c.73.58-.8.48-1.13.71-.06,0,.15.45.09.48-.54.22-1.22,0-1.86.12C261.81,64.58,260.41,65.39,258.94,65.41ZM435.87,53.27c1.92-.91,1.65,2,0,0Zm-37.55-1.2a7.34,7.34,0,0,1,5.33-.91c.14,0-.14.87,0,1s2.73-.09,1.55.49c-.48.6-.85-.17-1.56-.25C402,52.16,399.62,52.64,398.32,52.07Zm10.94.39c-.12-.51.23-.63.34-1-.83,0-.74.59-1.59.67a9.11,9.11,0,0,1-2.18-.52c-.05-.95,1.64-.55,2.21-.68,1-.24,3,.11,4.39-.1.42-.06,1.39,0,1.28-.68,1-.08.81.68,1.55.77.85.31.93-.38,1.58-.43.92-.06,1.94.61,2.8.57,1.66-.07,3-.87,4.75-1,1.57-.16,2.5.52,4.06.64a12.42,12.42,0,0,0,1.91-.38c.7,0,.79.28,1.24.31s.56-.22,1-.19c.61,0,.87.31,1.24.31a17,17,0,0,0,1.91-.38c.8-.1,1.47,0,2.21-.12.36-.08,1-.38,1.29-.41.57-.06,1.21.13,1.88.1.5,0,.75-.27,1.28-.18.76.15.57.45,1.21.79,1-.55,2.13-.3,2.56-.58a3.29,3.29,0,0,1,1.9-.12c-.49,1.13.48.87,1.48,1.56.6.41.57.69.89.79,1.38.4,3.44-.64,4.38.56-.23,1.08-1.49.15-2.21.08-1-.1-2.39-.06-3.45-.26s-1.08-.66-2.8-.68c-.49,0-.74.56-1.3.65a22.53,22.53,0,0,1-2.82-.15,46.46,46.46,0,0,1-5.35,0c-.5-.08-1-.55-1.54-.56-.9,0-1.68.78-2.55.83.16,0-.53-.47-1.24-.55a18.92,18.92,0,0,0-2.2.12c-.67,0-.81-.29-1.24-.31-2.22-.07-6.17-.28-9.73-.1a15.22,15.22,0,0,0-1.58.43,37.48,37.48,0,0,1-4.38.1A11.49,11.49,0,0,1,409.26,52.46Zm-17.81-.21c-.22-.75,1.79-1,2.19-.46C393.88,52.7,392.16,52.08,391.45,52.25Zm64.23,1.31c-.19-.82.5-.46,1.29-.39.52,0,2.24-.09,1.84.62C457.87,54,457.21,53.52,455.68,53.56Zm-144,.58c-1-.25-1.6.61-2.43.72-.48.07-.89-.3-1.6-.29s-.76.35-1.2.39-1.06-.35-1.29-.31c-.61.09-1.51.77-2.38,1-.27.09-1-.2-1.57,0-.29.09-.17.6-.86.59-.46,0-.88-.59-1.32-.55-.93.08-1.81.75-2.71.84-.65.06-.76-.47-1.33-.56s-.81.41-1.2.4-.38-.4-1-.36c-1.12.09-1.31.6-2.09.76-.25,0-.94.11-1.72.17s-1.66.15-2.31.18-.71-.31-1-.32c-.74,0-1,.43-2.15.35a15.5,15.5,0,0,0-4.71,0c-.23,0-.29.34-.58.33-.53,0-.45-.1-.84.63-.61.49-.76-.48-1.35-.52s-.9.43-1.49.49-1-.23-1.62-.22c-1.18,0-2.72.58-3.69.59-.7,0-1.61-.35-2.27-.29-.82.08-1.59.61-2.4.72-.57.08-.73-.24-1.31-.23s-.76.43-1.17.47-.62-.33-1-.29c-1.91.21-3.78.84-5.81,1.14-.95.14-2.25,0-3.16.13a11.65,11.65,0,0,1-3.06.61,10.87,10.87,0,0,0-1.31-.19c-.68.09-.73.42-1.16.52-.63.14-2.82.34-4,.44.43-1.28,1.49-1.53,2.82-1.64.48,0,1,.26,1.33.19a23,23,0,0,0,2.73-.63c.79-.24,1.44-1,2.31-1.18a7.66,7.66,0,0,1,1.32.23c2.89-.15,8-2.09,11.58-2.76,1.34-.25,2,0,3.07-.6a4.2,4.2,0,0,0,.83-.65,6.67,6.67,0,0,1,3.63-1.08c.7,0,1.22.49,2,.41s1.13-.59,1.78-.77,1.8,0,2.82-.22,2.52-.55,3.68-.84c1.36-.35,2.28-1,4-.89.63-.17.16-.93.79-1.1,1.38-.8,1.55.13,2.56.13a30.73,30.73,0,0,0,3.46-.21c.54-.07,1-.39,1.52-.44s1.39.28,1.94.23c.78-.06,1.76-.64,2.74-.84,2.75-.56,5.64-.67,6.51-1.09.45-.21.57-.93,1.14-1.11,1.53.09,2.65.94,4.77.23.44-.14.76-.5,1.2-.6s.88.14,1.59.09a32.24,32.24,0,0,1,5-.74c.5,0,1.15.37,1.61.32s1-.51,1.53-.63a6.47,6.47,0,0,1,2.52,0c1.36.31,4-.5,6.28-.5a57.33,57.33,0,0,0,7.24-.26c.55.44,0,.31.06,1,1,.07.94-.52,1.57-.11.45-.39.41-1.11,1.51-1.06.2.51-.58.38-.59.76.58.51,2.4-.08,3.47,0,.77-.08,0-.8-.36-.7.41-.57,2.18-.25,3.13-.45.34.3.36.87.7,1.17.58.28.52-.49.6-.5.41-.06.84.37,1.28.42a9.69,9.69,0,0,0,1.89-.07c.62-.06.93-.43,1.55-.55s2.73-.37,3.14-.36c.25,0,.33.26.64.21.9-.14,1.47-.53,2.18-.57,1.52-.08,3.13.32,4.74.28,1,0,2.33-.48,3.15-.12s1-.13,2.2-.27a9.41,9.41,0,0,0,1.27.21c.48,0,.57-.25.94-.25,1.59,0,3.18.58,4.75.65.47,0,1.11-.26,1.57-.26,1.58,0,5.13.15,6.94.13,2,0,4.66-.07,6.3,0,1.13.06.54.4,1,.73,1,.19,1.81-.43,2.84-.46.51,0,1.06.48,1.57.5.87,0,1.89-.46,2.85-.46.65,0,.44.38,1.25.49a15,15,0,0,1,1.89-.22c-.05,0,1.84.44,1.57,1a23.17,23.17,0,0,1-2.53.22,11.23,11.23,0,0,0-1.57-.25c-.79.09-1.35.64-2.21.7-.2,0-.59-.5-.94-.49-.72,0-1.42.39-2.21.46-1.18.1-2.44-.19-3.78,0-1,.12-2.07.62-3.14.7-.4,0-1.26-.24-1.57-.24-2.93,0-6.21.68-8.79.86-.46,0-1-.23-1.57-.22s-1.16.51-1.56.5c-.56,0-1.09-.44-1.58-.45s-1.31.34-1.88.27a17.94,17.94,0,0,1-2.21-.69c-1.24.09.25.74-.61,1-1.84-.35-3.62.55-5.3.68-.48,0-1.1-.43-1.59-.42s-1.43.57-2.17.57c-.26,0-1.07-.44-1.27-.43-.58,0-1.26.47-1.86.56-1.22.19-2.52,0-3.75.15-.66.08-1.39.46-2.17.57s-1.82,0-2.5.11-.76.64-1.21.8c-1.67.61-3.33.15-5.28.37-.49.05-1,.51-1.53.58s-1.09-.21-1.56-.13c-.71.13-1.11.53-1.84.61s-1.6-.09-2.5-.07c-.44,0-1.05.3-1.53.35s-.74-.41-1-.42c-.51,0-.81.59-1.2.57s-.34-.46-1-.42c-1.57.1-3.35.49-3.95,1.33a6,6,0,0,0-3.71.37c-.54.17-1.06.54-1.5.63s-1.1-.12-1.88,0a15.32,15.32,0,0,1-2.47.24c-1.07-.07,0-.66-1-.15a6,6,0,0,1-2.44.49C310.92,55,312,54.64,311.72,54.14ZM551.05,62c.65-.58.86-.09,1.92.06C552.87,62.73,551.41,62.41,551.05,62ZM449.35,49.24c1.75.49,3.92-.5,4.06.78C452.59,50.21,449.13,50.46,449.35,49.24ZM561.63,62.19a2.51,2.51,0,0,1,1.41-.76c.69,0,.78.38,1.22.43,1.22.14,3-.37,3.81.37-.17,1.16-1.4.47-2.63.3C564,62.34,562.43,62.84,561.63,62.19ZM463.87,49.83c.39-1,2.69-.74,3.86-.66,1.88.09,3.84.85,5.36.49a9,9,0,0,1,2.22,0c.58,0,.92.37,1.24.35.67,0,1.24-.53,2-.54A18.46,18.46,0,0,1,486,51.1c1.09.47.27-.8,1-.63,1-.07.88.52,1.87.45-.89,1.55-3.19.81-4.85.72-1.31-.08-3.06-.22-4.72-.44a7,7,0,0,1-1.24-.35c-.65,0-1.43.49-1.95.54a2.63,2.63,0,0,1-1.24-.36c-.27,0-.52.22-1,.15-1.06-.15-1.87-.43-2.81-.5a7.24,7.24,0,0,0-.67.42c-.29,0-.26-.26-.3-.26C467.89,50.62,465.41,50.9,463.87,49.83ZM570.34,62.11c1.75,0,3.83-.11,5,.83C574.33,63.26,570.53,63.45,570.34,62.11Zm-71.47-9.37c-.31-.91,1.1-.55,2-.51s2,.34,2.83.31c1,0,2.16-.59,3.27-.6s6.14.52,6.59,1.07a3.1,3.1,0,0,0,1.23.4c1,0,1-.54,1.66-.52s1,.36,1.55.44c1.66.22,3.57.2,5.07.39s3.51-.29,3.68,1.19c-1.92-.51-3.76-.22-5.69-.47-.75-.1-1.39-.48-2.18-.52-.58,0-1.34.29-2,.24-.34,0-.84-.63-1.2-.64s-.79.57-1.35.56c-1.75,0-4-.66-6.29-.79-.9,0-1.75.2-2.58.18-1.5,0-3-.35-4.09-.45-.58-.06-1.13-.4-1.55-.41S499.21,53.62,498.87,52.74ZM576,62.81c1.78.2,4.21,0,6.71.38.61.09,3.44.55,3.34,1.28-.51.41-1-.17-1.57-.26-1-.15-2.58-.16-3.81-.39-.49-.09-1.12-.45-1.53-.49C578.45,63.25,576.38,64.65,576,62.81Zm10.76,1.3c.1-1.13,1.63-.14,2.6,0s2.52,0,3.53.14c.48.08.81.63.86.63,1.63.18,3.33-.62,4.8.36-.9.79-2.33,0-3.23-.08-.51-.07-.56.11-1,.07-.66-.06-.81-.43-1.21-.46-.2,0-.58.6-.76.6-.68,0-.79-.35-1.21-.45-.57-.14-1,.07-1.61,0C588.72,64.69,587.8,64,586.8,64.11ZM405,45.17c0-.78,2.72-1.18,2.53,0C406.81,45.33,405.63,45.65,405,45.17Zm124.61,9.66c.53-.64,2.23-.11,3.53,0C533,55.83,529.85,55.57,529.62,54.83Zm-2.17-.54c.75,0,1.36-.29,1.89.26C529.37,55.4,527.09,55.35,527.45,54.29Zm8.15,1.38c.43-1.12,1.5-.32,2.59-.12C538,56.28,536.57,55.73,535.6,55.67Zm-2.17-.54a1.2,1.2,0,0,1,1.61,0C534.92,55.71,533.79,55.51,533.43,55.13ZM601.15,65.4c1.18-.41,3.27.27,5.11.41,1.11.1,2.19-.5,2.87.29,0,.39-.37.35-.44.64C606.13,66.88,603,65.77,601.15,65.4Zm20.68,2.3c.08-1,1.27-.42,2-.12C623.66,68.17,622.67,67.85,621.83,67.7ZM71.34,128.63c-1,.58-2.16,1.72-3,1.73C68.06,129.7,71,127.54,71.34,128.63Zm179.25-76c-.66,0-2.07.8-2-.11C249.3,52.53,250.71,51.71,250.59,52.62ZM91.91,113.77a7.47,7.47,0,0,1-.34-1.77C92.5,111.54,93.48,113.34,91.91,113.77Zm149-59.5c-.26.76-1.41.13-1.9.19C239.31,53.68,240.57,54.18,240.93,54.27ZM233.54,56c-.29-.83,1.57-.69,2-1.2.25.19.76.08.77.56C235.64,56,234.46,55.15,233.54,56Zm-6.14,1.45c-.36-1,.95-.93,1.72-.92C228.94,57,228.28,57.23,227.4,57.43Zm-2.44.66c-.29-.92.62-.83,1.4-.88C226.45,57.73,225.72,57.92,225,58.09ZM214.9,60.8l-1.22.32C213.19,60.3,214.89,59.84,214.9,60.8ZM482.4,42.09a3.43,3.43,0,0,1,1.88.41C483.88,43.09,481.89,43.41,482.4,42.09ZM124.8,94.75a.94.94,0,0,1,1.09-1.35A1.4,1.4,0,0,1,124.8,94.75ZM476.69,41.56c2,.44,3.9-.59,5.12,0,.29.69-2,.69-2.94.69C479,42.24,476.23,42.79,476.69,41.56Zm-5.42-.26c1.58-.39,2.18-.08,4.17-.1C475.18,42.46,472.11,42,471.27,41.3ZM197.2,65.52l-1.51.46C195.1,65.15,197.21,64.5,197.2,65.52Zm-28.61,9c.84-.52,1.16-.2,1.85-.47C170.68,74.77,168.6,75.56,168.59,74.56ZM140.81,86.62c-.63-.66,1.07-.94,1.34-.86C142.48,86.13,141.15,87.05,140.81,86.62ZM137.64,88c-.44-1,1.29-.63,1.92-1.12C139.92,87.41,138.05,88.36,137.64,88ZM131.36,91c-.64-.64,1-1,1.31-.92C133,90.4,131.71,91.38,131.36,91Zm-8.64,4.55c-.45.21-1,.64-1.23.35C120.8,95.26,122.93,94.43,122.72,95.51Zm34.6-16-1.47.58C155.86,79.52,157,78.46,157.32,79.53Zm-91.9,50c-.79.73-1.47,1-1.81.17C63.79,129.11,65.14,128.35,65.42,129.49ZM62,131.19c.51-.57.95-1.19,1.54-.57C63.38,131.21,62.31,132,62,131.19Zm13.68-9c-2.2.35-3.73,2.52-5.47,3.15-.41-.8.63-1.6,1.27-2,1-.66,2-.51,3-1.76C74.85,121.85,75.38,121.67,75.67,122.19Zm-6.9,4.41c-.62.66-.86.18-1.44.69-.42-.52.24-1,.89-1.47C68.06,126.5,68.42,126.05,68.77,126.6Zm-11.55,8.19c-.68-.45.53-.9,1-1.33.71-.7,1.75-2,2.3-1.14C59.79,133.45,58.51,133.54,57.22,134.79ZM582.81,55.17c-.09-.93.55-1.09,1.46-1C584.78,54.77,583.7,55.23,582.81,55.17ZM88.52,112.47c1.31-1.25,2.6-3.41,5-3.93.56.52-.51,1-1,1.45A9,9,0,0,1,88.52,112.47ZM544,48.61c-1.35-.35-3.62-.19-4.4-.86-.24-.53,2.72-.44,3.27-.27S544.23,48.09,544,48.61ZM110.37,99.79c-.3-.58,1-1.22,1.55-1.12A1.53,1.53,0,0,1,110.37,99.79ZM82.73,116.3c-.78-.66,1-1.59,1.63-1.56C84.69,115.34,83.47,115.8,82.73,116.3Zm41.53-24.76c2.86-1.75,1.1,1.75,0,0ZM96.35,107.09c-.1-.69.5-1.11,1.26-1.43a15.47,15.47,0,0,0,2.17-.84c.54-.36.6-1.17,1-1.39.25-.13.92-.06,1.35-.19.66-.2,1.08-.7,1.5-.56-.24,1.39-2.31,1.54-3.48,2.2-.28.15-.59.87-.87,1A25.06,25.06,0,0,1,96.35,107.09ZM598.47,56.65c.14-.6,1.28-.35,1.62,0A1.22,1.22,0,0,1,598.47,56.65ZM554.24,49.4c-.08-.6,2.61-.48,2.22.34A2.6,2.6,0,0,1,554.24,49.4Zm-6.64-1c.23-.78,1.66-.08,2.6-.08,1.63,0,1.55-.38,2.85.43.33.21.74.12.56.57A21.09,21.09,0,0,1,547.6,48.38ZM104.05,102.74c0-.52.43-1,1-1.4C105.13,101.91,105.07,102.88,104.05,102.74ZM134.71,87l-1.16.52C132.65,86.54,134.58,85.68,134.71,87ZM572.3,52c-.31-.68.82-1.8,1.1-2.74,1,.56,2.13-.1,3.24,0,.65.09,1,.59,1.82.79.54.13,1.15,0,1.94.07.61.09,1.46.51,1.86.55.64.07,1-.23,1.66-.21.87,0,2.36.46,3.48.57.69.07,1.62,0,1.94.09.79.21,1.59,1,2.4,1.15s1.31-.38,2.34-.32c.15,0,.57.57.86.64s1.33,0,1.94.1,1.42.29,1.9.33c2,.15,3.37-.29,4.65,1.3,3.44-.45,7,1,9.66,2.47-.65-.16-1.37.64-2.06.6a16.22,16.22,0,0,1-2.12-.88c-1.18-.31-2.21,0-3.56-.15-.64-.06-1.38-.52-2.17-.62-2.4-.3-6.37-1.08-9.51-1.42-1.55-.17-4.45-.05-6.75-.45-.82-.14-1.68-.58-2.49-.65-1.08-.1-2.11.29-3.28.19-.64-.06-1.16-.47-1.86-.55C576.87,52.6,574.55,52.29,572.3,52ZM361.51,35.22a6,6,0,0,1,3.19-.13C364.77,35.94,361.4,36.45,361.51,35.22Zm-2.84.6c-.29-.91,1.49-1,1.27,0C359.32,36.19,359.53,35.76,358.67,35.82Zm-26.43,1c.61-.45.41,0,1.28-.09C333.83,37.65,332.07,37.78,332.24,36.84ZM181.42,67.17c1.67-.26,1.61-1.09,2.84-1.5C184,66.33,182.24,68.54,181.42,67.17Zm-62.55,27c.08.75-1,.32-1.42.7C117.23,94.17,118.46,93.88,118.87,94.21Zm-8.68,4.59c-.42-.39,1.51-1.83,1.67-.92A2,2,0,0,1,110.19,98.8ZM484.84,40.14c-.64-.2-2.25.19-1.86-.65C483.62,39.69,485.22,39.31,484.84,40.14Zm-412,80.18-.4-.6c.49-.46.78-.34,1.18-.52C73.83,119.6,73.51,120,72.88,120.32ZM162,72.51c-.36-1.63,3-1.87,5.16-2.56.51-.16.42-.43.81-.58a4.17,4.17,0,0,0,1-.12,19.48,19.48,0,0,1,3.31-1.16c.25,0,.54.52,1.07.13l.24.68a2.54,2.54,0,0,1-1.5.52c-.68.11-1.38-.21-2.05,0s-2.24,1.25-3.78,1.71C165.05,71.47,163.5,71.89,162,72.51Zm-3.14.73c.36-.56,2-1.06,2.25-.38C160.52,73.3,159.15,74.3,158.89,73.24Zm-81,41.94c.51-.73.63-1.54,2-2.18C80.32,114,79,115.23,77.86,115.18Zm77.36-40-1.48.59C153.08,75,155.14,74.19,155.22,75.2ZM95.55,104.49c-.88.84-1.13.1-1.72.21C93.85,104.05,95.49,103.57,95.55,104.49ZM407.16,33c-.09-.64.46-.78,1.29-.68C408.53,32.9,408,33,407.16,33ZM125.09,88.18c-1.4.65-2-.24-3.57.7-.68-1,1.11-1,1.79-1.43,1-.52,1.72-1.48,2.58-1.27a3.6,3.6,0,0,1-1.8,1.42C124.09,88.47,125.1,87.31,125.09,88.18Zm2.26-1.92c-1.61.66-.29-1.55.54-1.08C128.25,85.64,126.53,85.71,127.35,86.26ZM360.42,31.43c.61.08,1.92-.41,1.61.41C361.26,32,360.41,32.39,360.42,31.43ZM134.73,81.7c-.58-.72,2-1.51,1.86-.56A2,2,0,0,1,134.73,81.7ZM396.31,30c.47.13.8.36,1.28.49C397.16,31.53,395.19,31,396.31,30ZM138,79.71l2.64-1.17C141.25,79.13,138.1,80.53,138,79.71ZM443.4,32.29c-.92,0-1.75-.07-1.56-.81C442.4,31.1,443.74,31.39,443.4,32.29Zm-24-1.83c.7,0,2.39-.5,2.55.56C420.78,30.84,419.39,31.75,419.4,30.46Zm21.78,1.47-1.61-.09C439.12,31.08,441.71,31.21,441.18,31.93Zm-287,40.83c-.58.34-.85.16-1.28.25-.09-.42.31-.71,1-.92Zm-4.76,1.88-1.17.52C147.7,74.42,149.33,73.69,149.46,74.64Zm10.33-4.34c-.33.07-.23-.21-.17-.45s.25-.72,1.31-1c-.06,0,.29.32.39.11s1.36-1.26,1.79-.71C163.52,69.33,160,69.35,159.79,70.3ZM230,42.75a3.52,3.52,0,0,1-1.95.2C228,42.19,230,42,230,42.75Zm-14.91,3.07c.29-.64,2.15-.67,3.06-1.07C217.89,45.51,216.11,45.71,215.13,45.82Zm-4.63,1.5c.11-1.1,1.64-1.15,2.69-1.22C213.29,46.89,211.49,46.94,210.5,47.32Zm-9.68,1.51c3.55-.79-.57,2.72,0,0Zm-5.37,2.41-.21-.69a2.68,2.68,0,0,1,1.62-.25C196.7,50.72,196,50.94,195.45,51.24Zm-11.52,3.35c-.09-.58.31-1,.89-1.23a8.18,8.18,0,0,1,2-.45C186.44,54.09,185.08,53.89,183.93,54.59Zm40.86-12.84c.62,0,1.83-.76,1.7.1C226.12,42.31,224.9,42.46,224.79,41.75ZM178.57,56c-.11-.84,1.89-1,2.91-1.52C181.55,55.24,179.44,56.09,178.57,56Zm-2.14.76c-.21-.63,1.26-1,1.76-.87C177.89,56.31,177,56.92,176.43,56.72Zm-9.19,3.22c-.61.62-1-.14-1.09-.13-.62.06-1.37,1.3-1.69.13.49-.1,1-.55,1.52-.58.08,0,.09.43.17.45C166.53,59.89,167.28,59.24,167.24,59.94Zm52.6-17.87c1.15-.41,1.89-.31,2.12.42A1.21,1.21,0,0,1,219.84,42.07ZM146.1,67.47c-.77.31-1.55.64-1.77,0C145.16,67.05,145.94,66.72,146.1,67.47ZM452.32,24c-.11-1.2,1.43-.37,2.29-.31,1.18.07,2.69-.34,2.87.69C455.45,24.88,454.43,24.18,452.32,24Zm-321.89,50c-.22-.57.87-1,1.39-.88C132,73.59,131,74,130.43,73.9Zm-14.21,5.82c1.85,1.44-3.31,2.26,0,0Zm330-56.42c.14-.91,1.33-.11,2-.13.81,0,2-.57,2.6-.06C450,24.29,447.7,23.72,446.2,23.3Zm-32-3.1c1-.12-.29-.52,0-.95,1.45,1.29,4.84,1.33,8.72,1.48,1.63.06,3.23.36,4.21.37.26,0,1.06-.46,1.31-.43.68.08,1,.65,1.59.81,0,0,1.1,0,1.61.08a33.38,33.38,0,0,0,5.51.3c.71-.07,1.6-.79,2.93-.32.28.09.17.45.62.51.8.1,1.38-.27,2-.14a8.24,8.24,0,0,1,1.59.57c.35.15,1.49.25,1.25.79-.92.52-1.68-.05-2.59-.14a4.34,4.34,0,0,0-1.3.17c-.26,0-.57-.51-.62-.51-.7-.06-.69.39-1,.42s-2.57-.63-3.21-.65-1.28.41-2,.38a7.17,7.17,0,0,0-1.29-.07c-.3-.11-.24-.5-.63-.52-1,0-2,.43-2.93.33-.62-.07-1-.67-1.58-.81-.11,0-.89.19-1.31.19s-.55-.28-1-.27-.33.25-.65.22a51.48,51.48,0,0,0-6.48-.21c-.65,0-.67.39-1,.45-.54.1-.69-.36-1.28-.28-.3,0-.34.43-1,.45,0,0,0-.52-.31-.49a2.76,2.76,0,0,0-1,.2c-.91.29-1.12-.19-2.25-.31-.91-.09-1.52.18-2.6.16-1.39-.05-3.18-.58-4.85-.57-.74,0-1.33.28-1.95.22s-1.32-.46-1.93-.5c-1.66-.1-3.12.28-4.87,0-.45-.09-.83-.47-1-.49s-.6.22-1,.23c-1,0-1.75-.3-2.27-.26-.77.05-1,.55-1.62.71a14.65,14.65,0,0,1-1.62,0c-.71.08-1.24.44-1.62.47-1.55.12-3.43-.44-5.19-.4-.91,0-2.11.67-3.24.29-.08,0-.3-.47-.33-.48-.6-.06-1.07.36-1.62.27s-.86-.61-1.31-.7c-2.09-.43-4.38.11-7.14.11a3.51,3.51,0,0,1-1-.23c-.27,0-.49.29-1,.27s-1.14-.4-1.64-.41-.54.24-1,.28-.7-.21-1.3-.19c-.75,0-1.5.3-2.27.33-.58,0-.69-.25-1.3-.18s-.6.47-1.28.53c-.28,0-.77-.38-1.31-.19-.11-1,.95-.41,1.6-.55.5-.1,1.11-.48,1.61-.54,1.61-.19,3.2.14,4.88,0a14.7,14.7,0,0,0,3.56-.6c.69-.61.34-.25,1.94-.27,1.14,0,2.33-.29,3.25-.29,1.81,0,6.55.1,8.78-.13.62-.07,1,.29,1.31.22.76-.17,1.3-.89,1.94-1,1.09-.17,2.26.47,3.26,0,0,.47-.89.3-.65,1,.62-.09,1.4-.07,1.3-.71,1.29.91,4.75,0,7.48.31a6.24,6.24,0,0,1,1,0,2.11,2.11,0,0,1,.32.48,4,4,0,0,1,2.61-.45c.51.85-.43.39,1,.49.49,0,1,.46,1.29.49.56.05.71-.23,1.31-.23,1.47,0,3.38.48,4.53.54C410.49,19.87,412.93,19.05,414.23,20.2Zm68.73,6c.66-.88,3.81-1.09,4.58-.3-.3.81-2,.17-2.94.21S483.28,26.86,483,26.23Zm-9-.59c.12-1.75,1.76-.58,3.32-.9C477.56,26.31,475.48,25.74,473.93,25.64Zm-15.8-1.26c-.15-1.27,1.85-.51,3-.51.42,0,1-.41,1.33-.38.62.05,1.14.47,1.9.62,1.37.27,3,.12,4.19.31.53.08.62.14.61.53-.27,0-.34.21-.67.19s-.55-.52-.6-.53c-.45,0-1.12.34-1.66.36C463.75,25.09,460.52,24.21,458.13,24.38ZM250.52,34.78c.47-.4,1.61-1,2.19-.67C252.55,34.65,251.16,35.08,250.52,34.78Zm-3.83.75c-.6-.66,1.79-1,1.87-.61C249.17,35.58,246.77,35.89,246.69,35.53Zm-16,2.88c.74-.27.79.27,1.64-.13-.46-1.25-2.47.56-2.93-1,.81-.79,1.21.4,1.44.4.67,0,1.07-.68,1.53-.6a1.85,1.85,0,0,1,1.23,1c.92-.19,2-.61,2.59-.36-.32.63-1.55.6-2.48.82S230.8,40,230.67,38.41ZM110.3,83.19c-.25-.55.83-1,1.35-.93C111.9,82.81,110.82,83.3,110.3,83.19Zm-2.5,1.57c-.47.12-1.34,1.07-1.54.58-.49-.72,1.38-1.12,1.67-1.74C108,84,107.13,84.28,107.8,84.76Zm-3.14,1.74-.34-.64,1.15-.63C105.38,85.68,105.68,86.18,104.66,86.5ZM97,90.76l-2,1.1C94.34,91.08,96.51,89.23,97,90.76Zm383.46-65c-.27.29-3.2.3-2.88-.51C478.88,25.18,479.15,25.77,480.41,25.76ZM81.93,99.34c-1.87.37-2.94,1.83-4.71,2.32-.47-.5,1-1,1.69-1.6C80,99.25,81.08,98.25,81.93,99.34ZM56.28,115.66c0-1,2.88-2.65,3.51-3l.41.59A15.37,15.37,0,0,1,56.28,115.66Zm34.6-22.37c-.21-.82,2.53-2,3.31-2.1.38.78-.91.75-1.31,1C92.2,92.61,91.77,93.44,90.88,93.29ZM83.35,97.9c-.44-.86,2.42-1.77,3-2.67l.37.62C86.06,96.15,84.62,97.81,83.35,97.9Zm-8.92,5.48c0,.32-.53.71-1.05.92s-1,.28-1.14-.1C72.55,103.38,73.83,103.26,74.43,103.38ZM64.66,110c-.63-1.07,1.35-1.46,2.17-2.06,1-.73,1.64-1.9,2.7-1.84.42-.39.62-.19.81,0A20.57,20.57,0,0,1,64.66,110Zm-3.38,2c.29-1,1-.95,2.16-2.06a.87.87,0,0,0,.82,0C64.49,110.83,61.92,112.17,61.28,112Zm178.27-75.6c.08.52-1.32.41-1.85.67C237.56,36.39,239.07,36.13,239.55,36.36Zm25.92-6.66a46,46,0,0,1,6.15-.76c.29.79-.93.34-1.57.5C268.6,29.79,265.9,31,265.47,29.7Zm-9.07,1.24c.69,0,2.16-.82,2,.09C258,31.52,256.46,31.71,256.4,30.94Zm83.76-10.29c-1.11.27-1.39-.17-2-.34C338.39,19.38,340.31,19.79,340.16,20.65Zm-7.2-.22c2-.15,3-.48,4.23-.29C336.94,20.88,333.13,21.75,333,20.43ZM251.33,32.18c-.2-.66-.3-1.28.72-1.37C252.82,31.16,252.29,32,251.33,32.18Zm-2.57.5c-.35-1.08.9-1.17,1.51-.78C250.33,32.42,249.57,32.56,248.76,32.68ZM342.08,20c-.29-1.2,2.54-1.32,3.54-1C345.52,20.6,343.82,19.78,342.08,20Zm-36.59,1.2a35,35,0,0,1,5.53-.55,11.28,11.28,0,0,0,5.21-.52c.45-.19.37,0,.62-.3.73-.81,5.27-.83,6.58.07,1.9-1.1,4.15-.24,6.53-.27-.94,1-2.76.59-4.2.78-1.1.16-2.53.67-4.18.88-.67.09-.89-.17-1.32-.11a47.57,47.57,0,0,1-8.46.6,21.3,21.3,0,0,0-3-.19c-.42,0-.5.29-.63.3l-.44,0c-.25,0-.59,0-.92,0C306.16,21.87,305.49,21.7,305.49,21.24ZM241.26,33.5c-1,.18-2.3.7-2.92.43C238.27,33.36,241.05,32.51,241.26,33.5ZM351.49,19.06c-.67-1.17,2.18-1.43,1.94-.32C352.67,18.77,352.49,19.19,351.49,19.06Zm-48.11,3.88c-.64.1-.79-.46-1.7-.5-1.92-.09-4.86,1.22-3.75-1,.13.4,1.12.05,1.33.07.73.06.79.31,1.36.31,1.1,0,2.18-.55,3.27-.19C304.26,22.39,303.47,22.47,303.38,22.94ZM234.62,33.8c1.16-.15,3-1.09,3,0C236.84,34.26,234.51,35.29,234.62,33.8Zm39.62-7c-1.06.16-2.26.47-2.37-.34C272.7,26.06,274.28,25.62,274.24,26.81Zm-13.19.53c.79-.07,1.64,0,2.49,0a10.66,10.66,0,0,0,2.48-.13c1.29-.28,1.93-1,3.11-1.24.78,1.12-1.23,1.59-2.67,1.89a23.44,23.44,0,0,1-3.26.31c-.78,0-.55-.19-1.42-.46C262.22,27.81,260.8,28.15,261.05,27.34ZM261,28.81c-1.41-.08-1.43-.19-2.57.51-.28-.54-1.33-.26-1.22-1.23.63-.71.93.2,1.69.16.59-.22.46-.79,1.52-.79C260.31,28.23,260.9,28.26,261,28.81Zm-33,7c-1.25.34-2-.73-.23-.93Zm25-6.67c.47.15,1.23,0,1.7.15C254.69,30.22,253.08,29.93,253.06,29.15Zm-26.85,6.11c.4,1.2-2.3,1.25-2.55.59C223.65,35.5,225.3,35.7,226.21,35.26ZM291.14,22.6c.69,0,2.21-.68,2,.22C292.68,23.28,291.16,23.37,291.14,22.6Zm-10.62,2c-.35-.79,1-1,1.54-.74A1.11,1.11,0,0,1,280.52,24.58ZM533.1,26.72c.15-.54,1.42.06,1.6.23C534.45,27.68,533.25,27.22,533.1,26.72ZM288.61,23.41c-1.49-.09-3.59.38-4.93.17C283.94,22.23,288.42,22.18,288.61,23.41Zm-44.5,7.74c-.92.08-2-.3-1.54-.91C243.73,29.85,244.69,30.48,244.11,31.15Zm-35.86,8.07c.46-.91,4-1.89,4.25-.64-.85,1-1.76.12-2.66.21C209.15,38.87,208.94,39.58,208.25,39.22ZM521.81,25.51c-.36-.09-.15-.26,0-.24.5-.72-1-.31-.52-1,1,.15,1.69.52,1.81,1.19C522.62,25.39,521.92,25.16,521.81,25.51ZM237.23,32c0-.48,1.46-.36.76-1.16.82-.26,1.39-.23,1.43.4C238,31.2,238.13,32.36,237.23,32Zm331.86-.69c1.22-1.85,2.66,1.28,0,0ZM200,41.31l-.27-.92c.78-.28,1.08.06,1.71,0C201.5,40.88,200.75,41.1,200,41.31Zm-7,.88c.63-.08,1.8-.89,1.71,0C194,42.55,193.25,43.13,193,42.19Zm-3.63,1.63c-.15-.89,2-1.51,2.51-.78A4.26,4.26,0,0,1,189.38,43.82ZM452.53,16c.1-1,1.21-.21,1.64-.12a8.91,8.91,0,0,1,1.3.1,2.75,2.75,0,0,1,.3.5c.48.07,1.33-.12,2-.09,1.57.06,3,.37,4.53.57-.15.49-1.37.82-1.69.84a17,17,0,0,1-3.54-.74c-.24,0-.36.28-.67.19-.07,0-.26-.5-.29-.5-.57-.09-.72.28-1.31.14A22,22,0,0,1,452.53,16ZM228.7,33c-1.27-.24-4.52,1-5.18.95,0-1.4,3.63-1.26,4.9-2.12Zm-18.23,4.42c-.69-1.13,1.12-1.31,2-1.29C212.52,36.78,211.1,36.93,210.47,37.38Zm31.26-7.93c-.24-.54.13-1,.7-1.33a3,3,0,0,1,2-.21C244.7,29,242.63,28.9,241.73,29.45ZM231.15,31.9l-1.6.37C229,31.4,231.24,30.89,231.15,31.9ZM205,38.6c-.12-.4.24-.57.44-.86.54-.81.37-.79,2.1-1.06C207.28,37.54,206.7,38.28,205,38.6ZM439.19,15.23c.45-.87,3.31-.25,4.24,0C442.92,16.43,440.45,15.52,439.19,15.23ZM212.71,35.54l1.27-.35C214.47,36,212.69,36.5,212.71,35.54ZM203,38.89c-1.18.16-3.09.22-2.61-.74a8.87,8.87,0,0,1,2.67-.27C203.36,38.32,203,38.55,203,38.89Zm325.3-15.71c1-.05.9.53,1.9.48C530.22,24.33,528.23,23.86,528.33,23.18Zm-14.27-1.07c-1.54-.49.34-1.72,1.08-.83C515.16,21.92,513.87,21.31,514.06,22.11Zm-70.31-6.63c.07-.61,1.24-.5,1.64-.15C445.32,15.93,444.14,15.83,443.75,15.48Zm-205,14.17c-1.38.4-2.36.36-2.78-.34.46-.76.82-.11,1.34-.07S239.08,28.61,238.74,29.65ZM168.05,49.74c-.53-1.06,1.29-.87,2.1-1C170.12,49.46,168.63,49.55,168.05,49.74Zm30.11-9.89c1.09-2.39-2.19,1-3.61.61.06-.32.26-.59.81-.75-.3-.49-1.58-.18-1-1,1.51-.75,2.45.1,3.44-.06.65-.1,1.32-1.09,2.21-.68A5.06,5.06,0,0,1,198.16,39.85Zm21.55-6.2c-.34-.55-.08-.87.78-.95-1.78-.69-5.17,1.92-6.42.24,1.17-1,2.47-.27,3.63-.48a18.23,18.23,0,0,1,2.5-.92c-.07,0,.25.34.38.14.22-.36,2.43-.16,3.85-.93.71.71-1.06.39-.79.92.05.64,1.74-.64,1.45.4-1.68.46-3.27.8-4,.23C220.68,32.77,220.85,33.47,219.71,33.65ZM157.34,53.2c-.54.42-.84-.11-1.1-.08-.46.06-1.19,1.1-1.4,0C156,52.64,156.86,52.63,157.34,53.2ZM488.05,17.54c.51.15.59-.21,1-.14s.49.51.6.53c.37.06,2-.62,1.92.45C490.85,18.56,487.7,18.68,488.05,17.54Zm-8.11-.75,1.95.18C481.83,17.72,479.57,17.83,479.94,16.79Zm62.42,6.87c.46-.27,1.43,0,2.29.08C545.1,25.47,542,24.84,542.36,23.66ZM477,17c-.93,0-1.77-.13-1.56-.86A1,1,0,0,1,477,17Zm-6.81-.63c-.63-.81-1.44-.17-2.24-.66a1,1,0,0,0,.39-.69C469.28,15.24,470.16,15.54,470.16,16.37Zm67.09,6.33c.81.14,1.65.28,1.51.94C538.16,24,536.84,23.56,537.25,22.7Zm-70-7-1.62-.12C465.21,14.77,467.83,15,467.27,15.67ZM190.16,40.81a4.4,4.4,0,0,1,3-1.43C193.27,40.23,191.22,40.35,190.16,40.81Zm23.39-7.24c-2.13,1.66-1.71-1.7,0,0ZM178.66,44c-.48-.71.83-1.2,1.41-1C180.19,43.49,179.45,43.74,178.66,44Zm-6.89,2.41c-.55-.1-.78-.68-1.33-.8a17.93,17.93,0,0,1,4.78-1.42c.41.81-1.3.81-2,1.22S172.4,46.18,171.77,46.39ZM133.5,61.51c-.81-.55,1.58-1.95,1.73-1A3.88,3.88,0,0,1,133.5,61.51ZM210.93,34c-1,.34-1.61.14-1.85-.5C210.23,33,210.71,33.37,210.93,34ZM405,10.85c.49-1.06,1.74,0,2.29.26C406.55,12,405.66,11.25,405,10.85Zm-3,.45c0-1.06,2.5-.78,3-.21C404.41,11.87,403.13,11.4,402,11.3ZM165.88,46.68c1.37-.38,3.16-1.35,4.17-1.21.35.76-1.56,1.42-2,1.45C167.43,47,165.75,47.45,165.88,46.68Zm-10.64,4.77c-.45,1.28-1.81.67-2.87.88,0-.6.64-.84,1.06-.94.08,0,.18.65.26.67C154.37,52.2,154.85,50.57,155.24,51.45Zm-9.37,3.45c.77-.12,2.25-1.36,2.35-.41C147.86,55,146,55.92,145.87,54.9ZM526,20.72l-2.26-.29.06-.47,2.26.28ZM414.15,11.56a2.81,2.81,0,0,1-1.63-.29c-.12-.83.13-1.37,1.34-1.16-.12.31-.59.36-.67.7C413,11.38,414.68,10.72,414.15,11.56ZM386.28,9.74c1,.2,2,.49,3,.73C388.13,11.14,386.42,10.92,386.28,9.74ZM165.5,47.58c-.9.5-1.22.17-2,.43.13-.56,1-.91,2-1.22A1,1,0,0,0,165.5,47.58ZM119.17,66.21c.61-.19,1.66-1.19,1.7-.31C120.2,66.4,119.54,67.1,119.17,66.21Zm-2.7,1.33c1-.44,1.2-1.22,1.71-.31C118,67.6,116.73,68.19,116.47,67.54Zm282-56.75h-1.32C396.86,9.85,398.7,9.87,398.43,10.79Zm-3,0c-1.27,0-2.05-.27-2.29-1C394,9.31,395.43,9.93,395.47,10.76ZM111.6,70.49l-1.5.74C109.37,70.52,111.46,69.48,111.6,70.49Zm271.4-60v-1c.69.13,2.16-.33,2.31.2C385.24,10.51,384,10.42,383,10.51Zm-4.62-1.37c1.1-.42,1.09.6,1.66.69s1.34-.73,2,0c.27,1-1.22.27-2,.27s-3.27.58-4-.42C375.24,9.4,378.32,10.43,378.38,9.14Zm-110,10.6c.1-.85,3.1-1.06,3.88-.88C272.18,19.71,269.19,19.91,268.41,19.74Zm-45,8.28c-.17-1.44,2.42-1,3.45-1.29,2-.57,5.25-1.34,8-2.11.66-.18,1.58-.08,2.32-.29s1.33-.81,1.84-.91,1.39.09,2,0c3-.27,6.26-1.3,9.44-1.87,1.31-.23,2.65-.29,4-.53s2.46-.79,3.53-.94c.8-.12,1.56.09,2.37,0,1.95-.2,4-1,5.92-.78l.12.7c-1.06.78-1.41.07-2.33.14-2.3.15-4.35.95-6.51,1.22-1.67.22-3.44.69-5.2,1-1.61.3-3.15.37-4.6.65-.79.16-1.14.52-1.9.62-.93.13-2.08,0-3,.11-.66.1-1.18.46-1.9.64s-1.22,0-1.67.14c-.75.2-1.44.77-2.16,1-.56.17-.74-.09-1.34.06s-.53.39-.92.46c-1,.18-2,0-3,.21C229.54,26.76,226.38,28,223.42,28ZM152.11,51.66c-.1.59-2.14,1.19-2,.29C151.07,51.35,151.48,51.68,152.11,51.66Zm-8.68,3.43-.37-.88c1.59-.1,2.7-1.64,3.38-.57A11.42,11.42,0,0,0,143.43,55.09ZM363.57,9.44c.93-.24.87.3,1.66.17C365.22,10.33,363.28,10.33,363.57,9.44ZM123.48,62c1.18-.31,1.25-1.15,2.14-1-1.13,1.65.64-.33,1.11.82C126,62.74,124,62.9,123.48,62ZM90.07,80.58c.12-1.47,3.14-1.46,3.88-2.69.11.2.44,0,.7-.12C94.56,78.81,91.17,80.29,90.07,80.58ZM76,87.77c.1-.84,1.71-1.08,2.13-1C78.33,87.74,76.45,88.16,76,87.77Zm4.42-2.43c.24.47-1.16.83-1.59,1.26C78.49,86,79.88,85.28,80.42,85.34ZM71,91.14c.79.35-1.1.48-1.85.85-.94.47-1.51,1-2.29,1.41C66.83,91.92,69.66,91.37,71,91.14Zm-7.2,3.73c.88-.67,1.77-1.93,2.49-1.11C65.38,94.44,64.5,95.69,63.77,94.87ZM44.84,109a3,3,0,0,0-2.71,1.45C40.67,109.14,45.59,106.73,44.84,109ZM386.61,8.3c-.08-.52,2-1.3,2-.24A3.86,3.86,0,0,1,386.61,8.3Zm-1-.23c-.27.42-2.38.19-2.31-.45C384.67,7.33,384.6,8.11,385.62,8.07ZM47.09,105.15c.84-.17,2.27-1.77,2.75-.78-1,.69-1,1.35-1.79,1C47.78,105.2,47.24,105.64,47.09,105.15ZM30.51,118.64c-.22-.29.16-.82.63-1.16s1-.43,1.16,0A2.18,2.18,0,0,1,30.51,118.64ZM374.42,8.24a8.57,8.57,0,0,1-2.65-.2C372.21,7.61,374.57,7.06,374.42,8.24ZM114.92,65.9c-.68.17-1.91,1.38-2,.46C113.59,66.18,114.83,65,114.92,65.9ZM91.42,78.19c-2.46,1-3.47,1.58-6,2.46-.19-1.11,1.34-.91,2-1.35.83-.6,1.27-1.94,2.89-2.42C90.86,77.21,90.7,77.55,91.42,78.19Zm-40.32,25c-.86-.58.93-.91,1.53-1.34.77-.55,1.23-1.46,2.23-1.52C54.69,101.63,51.78,102.8,51.1,103.22ZM25.82,122.53c-.5-.43,1.51-2.18,2.05-2.06C28.63,121,26.24,122.45,25.82,122.53Zm-4.71,3.52c.89-.74,1.91-1.93,2.63-2C24.16,124.6,21.51,127.1,21.11,126.05ZM326.4,8.13c.36-.38.34-.63-.08-1-1.28,0-1.92.28-3,.23-.5,0-.91-.36-1.37-.34-1.48,0-2.92.52-5,.49-1.23.14.07.93-.57,1s-.66-.28-.73-.65c-.72,0-.46.43-.94.57s-.62-.16-1-.14c-1.05,0-1.17.44-2.32.23a2.54,2.54,0,0,1-1-.38A14.15,14.15,0,0,0,305.33,8c-1.24.29-1.29.79-2.54,1.23-.2-.49-1.17,0-1.71-.26-.09-.05,0-.45-.06-.48-.62-.13-1.35.17-2,0-.16,0-.26-.41-.39-.43a6.18,6.18,0,0,0-3.67.24c-.54.23-.82.67-1.57.92.06-.76-.54-.91-1.15-1.06-.76-.08-1.46.51-2.29.54s-1.53-.58-2.45-.64c-.73-.06-1.83.33-3,.39-.67,0-1.44-.23-2.07-.22-1,0-1.95.39-2.65.41-.44,0-1.13-.31-1.39-.26s-2.5,1.52-2.95.72-.36-.21-1.36,0c-.48.09-1.76-.46-1.62.5-1.1.23-.73-.6-1.47-.73-.57-.1-.88.51-1.62.51-.24,0-.48-.62-1.08-.32-1.08.4.05.54-.5,1.06-.88-.11-1-.34-1.74-.2s-1.83,1.38-2.28.61c-.62-1.07-.11,0-1.37,0-.35,0-1.14-.9-1.87-.91-.8.63-4.48,1.45-5.38.56-.92.22-2.31.24-2.22.92-1-.05.36-.72-.51-.88-1.66.48-2.33,1.16-4.59,1.15-1.52,0-3.51-1.27-4,.54-.73-.57-1.73.08-2.74.06a5.85,5.85,0,0,0-1.48-.45c-.43,0-.9.28-1.32.29a15.33,15.33,0,0,0-3.79.13c-.66.17-1.25.83-1.88.93-.79.12-.76-.32-1.42-.16-.27.06-.93.72-1.1-.24-.82-.09-.93.49-1.6.61s-.86-.24-1.43-.16c-1.22.19-1.58.67-2.65.62-.14,0-.55.2-.66.15s0-.47-.11-.47a17.08,17.08,0,0,0-2.71.39c-.58.16-1.21.8-1.87.92s-1-.35-1.83-.3-.8.46-1.26.58c-.7.2-1.32-.11-1.76,0-.71.15-2.25.76-3.62,1-.55.09-.9-.14-1.44-.11s-1.24.49-2,.53c-.34,0-.66-.26-1.11-.19-.76.11-1.94.28-2.7.47-.51.13-.54.43-.93.5s-.93-.15-1.45-.1c-1.24.09-2.85.7-4.35.92-.79.11-1.7.08-2.44.23s-1.77.64-2.62.8c-.59.12-1.19-.07-1.78,0a20,20,0,0,1-2.95.91c-.38,0-1.06-.14-1.45-.06-2.34.48-4.63,1.8-6.86,1.12,1.11-1.07,3-.86,4.67-1.19.57-.12,1.37-.51,2-.61s.78.18,1.13.15c.52,0,.43-.38.59-.43h.8a8.18,8.18,0,0,0,1,0c.31-.08.63-.5,1.24-.63s1.56-.05,2.44-.25c1-.23,2.36-.71,3.66-1.08a9.34,9.34,0,0,1,3.39-.45c.22,0-.49.39-.6.41,1.3-.2,2.29-.93,3.58-1.21.48-.11,1,.38,1.51.33s.5-.39.93-.49c.86-.22,4.06-.57,5.4-1,.29-.09.43-.43.93-.5.18,0,.66.29.78.29.32,0,.68-.25,1-.27.47,0,1.09.17,1.44.11a13,13,0,0,1,1.26-.58c1.3-.36,3.09-.36,4.42-.59.87-.16,1.85-.53,2.66-.62.55-.06,1.23.18,1.76.08.9-.16,1.78-.65,2.6-.85,1-.22,4.24-.85,4.75-.6.88.43.3.13,1.71-.15.61-.12,1.17.22,1.43.16.56-.13.29-.44,1.22-.77-.1,0,.18.23.38.16s0-.25.28-.31c.58-.13,1.06.15,1.76.08,1.78-.1,3.77-.89,4.65-.91,1.12,0,2.15.64,3.23.58A13.84,13.84,0,0,0,248.74,9c2.17-.49,4.86-.18,7.11-.66a2.16,2.16,0,0,0,1.57-.79c2.33,1,7.54-.51,11.6-.28.66.76-1.1.33-.87.88.44.48,2.1-.25,3-.25.34-1.16-2.15.48-1.81-.68.89,0,.64-.65,1.62-.51.39.06.26.62.78.61,1.73,0,3.78-.75,5.65-.92.58-.05,1.12.22,1.74.21s1.24-.26,2-.33,1.6.22,2.4.16c1.52-.09,3.07-.51,4.66-.6,1.29-.09,2.75.28,4.09.19A28.24,28.24,0,0,1,296,5.51c.36,0,.94.33,1.38.31,2.92-.13,5.95-1.23,8.65-1,.54,0,.75.56,1.08.62,1.44.27,3-.4,4.66-.47,1.08,0,1.59.39,3.37.15a7,7,0,0,0,1.31-.37c.73,0,1.12.35,1.71.31s1.09-.34,1.64-.4c.9-.09,2,.18,3,.19.44,0,.91-.16,1.33-.14a26.15,26.15,0,0,0,5.05.37c.6,0,.68-.3,1.31-.33s1,.2,1.35.15c1.49-.19,2-.85,3-.21.45.3,1.39,0,2.67.06s2.51.44,4,.44c.76,0,1.54-.36,2.31-.4,1.25-.06,2.43.27,3.68.29,1.05,0,2.3-.22,3.31-.13s1.78.54,2.69.61c1.23.08,3.7.09,4.64,0,.29,0,.5-.31,1-.28s.73.34,1.34.42,2.25-.37,2.65-.11c.24.17.32.65.68.7.71.09,1.32-.37,2-.33s1.53,1.2,3.32.66c-.28,1.49-3.1-.06-3.26,1.26-1.09.33-2.27-.22-3-.11s-.51.44-1.3.53c-1.15.24-.37-.63-1-.92-.35-.16-1.23.14-1.65.07-.18,0-.94-.71-1.68-.65s.23,1.08-1,.76c-1.34.12-.2-.5-.37-1l-2,.08c-1,.45,1.94.48.71,1.17a11.43,11.43,0,0,1-3,.13c-.46-.09-.4-.57-.7-.7s-.77-.1-1-.19c-.94-.39-4.36-1.41-6-.2,0,0,1.1.49.36.46-.2,0-.9-.39-1.33-.15-.23.12,0,.36-.31.5l-1,.31c-.71.13-.72-.4-1-.41-.56,0-1,.55-1.29.57-.64,0-.79-.38-1.35-.39s-.71.51-1.3.57S336.24,8,335.05,8c-2,.1-4.39.88-6-.55C328.1,7.66,327.32,7.94,326.4,8.13Zm-62.65,9.93c-.91-.21-2.61.43-3.07-.19C260.79,17.73,264,16.85,263.75,18.06ZM74.35,87.65c-.76.47-1.59,1.09-2.14,1C72.13,88.08,74,86.6,74.35,87.65ZM241,21.25c.78,0,2.46-.93,2.39,0C242.92,21.71,240.88,22.26,241,21.25ZM345,7.09c1.22-.07,2.43-.1,3.64-.16.4.64-.57.48-1,.52C346.9,7.53,344.84,7.85,345,7.09Zm-63.33,7.1-.66.1c0-.21-.16-.2-.36-.18l-.07-.48c.29,0,.29-.14.29-.29l.66-.1c0,.21.16.2.36.18l.07.48C281.64,13.9,281.63,14,281.63,14.19Zm-43.72,7c.8-.22,1.08.14,1.72.09C239.38,22,237.78,22.41,237.91,21.22Zm39.75-6.63c-.44-.93,1.8-1.37,2.15-1.32C279.61,14,278.68,14.3,277.66,14.59Zm-46.91,8.28c.28-.45,2-.44,2.6-.6,1-.23,3.05-1.07,3.36-.28a5.44,5.44,0,0,1-2.55.84,3.87,3.87,0,0,1-1.08-.25C232.91,22.61,231.12,24.41,230.75,22.87Zm40.3-7.45c-.48.07-.23-.46-.45-.66,0,0-.69-.3-.69-.13,0-.52,1.6-.53,1.82-1.27,1,.05.43.3.48.9.79,0,.74-.59,1.24-.69,1-.2,1.67.65,3.33-.3a2.44,2.44,0,0,1-1.17,1.16c-.64.22-.68-.33-1.39-.26C273.69,14.23,272,15.18,271.05,15.42Zm51.69-7.23c.66-.06,1.32-.13,2-.18C324.69,8.35,322.65,9.18,322.74,8.19Zm-54.4,7.18c-.84.21-1.43.14-1.43-.5C267.75,14.67,268.54,14.53,268.34,15.37Zm-4.31.46c-.34-.82.85-.88,1.85-1C266,15.51,264.83,15.58,264,15.83ZM261,15.62c.4-.47,1.67-.52,1.72.19C262.25,16.25,260.86,16.47,261,15.62Zm-3.52,1.18c-.58.14-.74-.16-1.36,0-.28-.71.56-.89,1.51-1C257.81,16.25,257.47,16.46,257.43,16.8Zm-3,.34c-.21.64-1.32-.08-2.29.45C251.75,15.86,253.89,16.68,254.44,17.14Zm-11.09,2.42c-.78.25-1.07-.55-1.51-.68s-1.21.4-1.08-.28c1.63-.16,2.09-.84,3.28-.65C244,18.56,242.88,18.71,243.35,19.56Zm63.38-11c3-1,1,1.59,0,0Zm-55.29,8.91-2.62.51C248.71,17.14,251.3,16.47,251.44,17.48Zm-4.91,1-1.31.26C244.67,18,246.83,17.25,246.53,18.44Zm-21.32,4.24c-2.1-.17.8-2,2.06-1.46C226.69,21.75,225.45,22,225.21,22.68Zm-2.07,0a2.88,2.88,0,0,1-1.69.14C221.21,22.23,223.46,21.49,223.14,22.67Zm28.31-6.9c.37-.5,1.14-1.39,1.83-1.1C253.52,15.45,252.3,16.13,251.45,15.77Zm-2.3.45c-.53-1,1.78-1.74,1.64-.32A1.66,1.66,0,0,1,249.15,16.22ZM247.74,16c.17-.11.5.29.42.4s-.79-.33-.75-.34c-.77.16-2.49,1.06-3.29.65-.33-1.22,1.84-1.31,3.43-1.66C248.11,15.51,246.88,16.11,247.74,16ZM283,9.62c.52-1.16,2.59-.2,4.28-.8C287,10.08,284.31,9.66,283,9.62ZM206,26.15c-.65.28-.9.08-1.36.12,0-.43.41-.68,1.17-.81Zm-7.34,1.24c.36-.45,1.9-.75,2.08-.07C200.35,27.84,198.81,28.14,198.68,27.39Zm-7.52,3.07a18.49,18.49,0,0,1-3.17,0C188.36,29.2,191.18,29.18,191.16,30.46Zm-9.86,2.29a3.29,3.29,0,0,0-2.41.24c-.29-1.43,2-.79,3.4-1.55C182,31.89,181.1,32.14,181.3,32.75ZM258.09,13c-.85.23-1.43.19-1.45-.45C257.49,12.31,258.28,12.15,258.09,13ZM169.72,35.42a3.49,3.49,0,0,1,1.76-1.13.92.92,0,0,1,.55.57C171.5,35.62,170.43,35.4,169.72,35.42Zm-.48.67c-1,.46-1.36.12-2.07.22C167.29,35.72,169.38,35.19,169.24,36.09Zm-9.65,3.14c-1,.34-2.05.87-2.16,0C158.19,38.66,159.47,38,159.59,39.23ZM135.5,47.5c-1.22,2.31-3.21-.22,0,0Zm-4.17,2.37c-1.45.89-1.84,0-2.45-.49C130.39,48.39,130.92,49,131.33,49.87Zm12.43-5.49c-.55-.74.11-1.18,1.23-1.52C145.51,43.59,144.68,44,143.76,44.38ZM124,52.6a3.9,3.9,0,0,1-2,.61C121.65,52.69,124.1,51.33,124,52.6Zm-14.79,6.23c-.18.58-2.62,1.83-2.66.78A3.94,3.94,0,0,1,109.19,58.83Zm-4.78,2.64c-.8.36-1.6.74-1.86.12.56-.25.51-.58,1.11-.82A1.06,1.06,0,0,1,104.41,61.47Zm-5,1.43c1-.7,1.42-.41,2.06-.49C101.39,63.15,99.52,64.18,99.37,62.9Zm-22,11.93a1,1,0,0,0-.07-.8c2.16-1,3.6-2.49,5.06-1.53-.17.72-.56.12-1,.29a15.63,15.63,0,0,0-2,1.06A6.92,6.92,0,0,1,77.36,74.83Zm-30,19.58c-1.11.53-.81-.46-.68-1,.93-.24,2.2-1.36,2.82-.77C48.58,93.64,47.15,93.41,47.4,94.41Zm-4.68,2.92c-.68-.82,2.58-3,3.12-2.15A18.28,18.28,0,0,1,42.72,97.33ZM237.81,12.87c.34-.68,1-.7,1.93-.67C239.87,12.83,238.3,13.09,237.81,12.87Zm-62.4,8.39c-.08.57-1.81.68-2.54,1.1-.39-.48.36-.43.25-.34C173.54,21.67,174.21,20.52,175.41,21.26Z"/></g></g></svg>